<svg width="399" height="165" viewBox="0 0 399 165" fill="none" xmlns="http://www.w3.org/2000/svg">
<path d="M30.9255 11.602H19.6147L2.4751 60.7893H15.7982L18.8514 50.9241H31.9664L35.1584 60.7893H48.4815L30.9255 11.602ZM21.6271 39.8778L25.2354 25.4967H25.5824L28.9826 39.8778H21.6271ZM75.536 45.4356C72.8298 52.2441 61.7272 50.5767 61.7272 44.6714V27.7199C61.7272 21.6062 72.691 20.2167 76.0218 26.3304L86.1529 22.2314C82.1976 13.4778 74.9115 10.9072 68.8745 10.9072C59.0209 10.9072 49.3061 16.6041 49.3061 27.7199V44.6714C49.3061 55.8567 59.0209 61.4841 68.6663 61.4841C74.8421 61.4841 82.267 58.4272 86.3611 50.4378L75.536 45.4356ZM103.364 42.2399H117.52V60.7893H130.01V11.602H117.52V30.2209H103.364V11.602H90.8735V60.7893H103.364V42.2399ZM161.915 11.602H150.604L133.465 60.7893H146.788L149.841 50.9241H162.956L166.148 60.7893H179.471L161.915 11.602ZM152.617 39.8778L156.225 25.4967H156.572L159.972 39.8778H152.617ZM182.763 11.602V60.7893H201.152C211.005 60.8588 220.234 55.9262 220.234 44.602V28.0672C220.234 16.6041 211.005 11.602 201.152 11.602H182.763ZM195.253 49.1178V23.2041H201.568C205.731 23.2041 207.744 25.2188 207.744 28.4146V43.7683C207.744 46.9641 205.801 49.1178 201.568 49.1178H195.253ZM274.936 52.5914C279.516 58.4967 285.761 61.4841 291.66 61.4841C300.681 61.4841 310.674 56.2735 311.09 46.7557C311.642 34.6672 302.902 31.6104 294.159 30.0125C290.342 29.1788 287.773 27.7893 287.634 25.4272C287.842 19.7304 296.657 19.522 301.792 25.0104L309.91 18.7578C304.845 12.5746 299.085 10.9072 293.118 10.9072C284.095 10.9072 275.352 15.9788 275.352 25.6356C275.352 35.0146 282.569 40.0167 290.481 41.2672C294.505 41.823 299.016 43.4209 298.877 46.1999C298.53 51.4799 287.704 51.202 282.777 45.2272L274.936 52.5914ZM361.405 36.543L356.963 40.3641L352.869 35.2925C356.339 32.8609 358.837 29.5956 358.837 23.9683C358.837 16.2567 352.453 11.3935 345.514 11.1851C333.44 10.8378 326.084 23.8988 334.55 32.7914C329.901 35.5704 327.195 39.183 327.195 45.1578C327.195 60.442 345.028 65.6525 355.09 56.7599L358.421 60.7199H372.993L363.764 49.1872L368.344 45.4356L361.405 36.543ZM345.306 20.9809C346.832 20.9809 348.012 22.3704 348.012 23.9683C348.012 25.7746 346.763 27.0251 344.612 28.4841C343.293 26.8862 342.044 25.4272 342.044 24.1767C342.044 22.3704 343.571 20.9809 345.306 20.9809ZM347.873 48.423C345.653 50.9935 341.697 50.8546 339.963 48.423C338.436 46.3388 338.783 42.9346 341.836 41.3367L347.873 48.423ZM6.77736 144.737H19.1984V130.356H26.4845C38.3504 130.356 44.3874 121.671 44.3874 112.918C44.3874 104.234 38.4198 95.5493 26.4151 95.5493H6.77736V144.737ZM19.1984 119.309V107.151H26.4151C33.9094 107.082 33.9094 119.379 26.4151 119.309H19.1984ZM62.2323 107.221H83.8824V95.5493H49.6725V144.737H83.8824V132.996H62.2323V125.631H82.1476V114.863H62.2323V107.221ZM116.628 144.737H132.102L118.709 127.855C124.677 125.979 128.355 120.838 128.355 111.737C128.077 100.204 120.236 95.5493 110.105 95.5493H90.467V144.737H103.027V129.105H105.247L116.628 144.737ZM103.027 118.406V107.151H110.313C118.154 107.151 118.154 118.406 110.313 118.406H103.027ZM135.327 95.5493V144.737H153.716C163.57 144.806 172.799 139.874 172.799 128.549V112.015C172.799 100.551 163.57 95.5493 153.716 95.5493H135.327ZM147.818 133.065V107.151H154.132C158.296 107.151 160.308 109.166 160.308 112.362V127.716C160.308 130.911 158.365 133.065 154.132 133.065H147.818ZM191.864 95.5493H179.443V144.737H191.864V95.5493ZM199.636 95.5493V144.737H218.025C227.879 144.806 237.108 139.874 237.108 128.549V112.015C237.108 100.551 227.879 95.5493 218.025 95.5493H199.636ZM212.127 133.065V107.151H218.441C222.605 107.151 224.617 109.166 224.617 112.362V127.716C224.617 130.911 222.674 133.065 218.441 133.065H212.127ZM242.572 128.549C242.572 139.804 252.772 145.431 262.973 145.431C273.173 145.431 283.304 139.804 283.304 128.549V111.737C283.304 100.482 273.104 94.8546 262.903 94.8546C252.703 94.8546 242.572 100.412 242.572 111.737V128.549ZM254.993 111.737C254.993 108.124 258.879 106.179 262.764 106.179C266.789 106.179 270.883 107.916 270.883 111.737V128.549C270.883 132.092 266.928 133.899 262.973 133.899C259.017 133.899 254.993 132.162 254.993 128.549V111.737ZM287.54 136.539C292.12 142.444 298.365 145.431 304.264 145.431C313.285 145.431 323.277 140.221 323.693 130.703C324.248 118.615 315.505 115.558 306.762 113.96C302.945 113.126 300.378 111.737 300.239 109.375C300.447 103.678 309.26 103.469 314.395 108.958L322.514 102.705C317.448 96.522 311.689 94.8546 305.721 94.8546C296.7 94.8546 287.956 99.9262 287.956 109.583C287.956 118.962 295.173 123.964 303.084 125.215C307.109 125.77 311.619 127.368 311.48 130.147C311.133 135.427 300.308 135.149 295.382 129.175L287.54 136.539Z" fill="#98EE6F"/>
<path d="M250.549 49.3493C254.776 48.6444 258.143 46.537 260.647 43.0275C263.152 39.5179 264.053 35.6465 263.349 31.4138C262.645 27.181 260.54 23.8107 257.035 21.3029C253.529 18.7952 249.662 17.8937 245.434 18.5984C241.207 19.3032 237.84 21.4104 235.336 24.9201C232.831 28.4298 231.931 32.301 232.634 36.534C233.338 40.7667 235.443 44.137 238.949 46.6447C242.454 49.1524 246.321 50.0539 250.549 49.3493ZM224.95 71.6755C223.762 71.8735 222.661 71.6101 221.649 70.8855C220.635 70.161 220.03 69.2037 219.832 68.014C219.627 66.7785 219.89 65.6765 220.621 64.7079L230.387 50.9819C226.872 47.3589 224.696 43.0304 223.859 37.9967C223.315 34.7248 223.429 31.4902 224.2 28.2931C224.972 25.0958 226.258 22.2361 228.058 19.7139C229.858 17.1917 232.144 15.0471 234.915 13.2802C237.686 11.5132 240.705 10.3573 243.973 9.8125C247.242 9.26774 250.472 9.38168 253.666 10.1544C256.859 10.9271 259.715 12.2145 262.235 14.0166C264.754 15.8188 266.896 18.1071 268.661 20.8815C270.426 23.6559 271.58 26.679 272.124 29.9508C272.668 33.2227 272.555 36.4573 271.783 39.6545C271.011 42.8518 269.725 45.7115 267.925 48.2337C266.125 50.7558 263.84 52.9005 261.068 54.6675C258.297 56.4344 255.278 57.5903 252.01 58.1351C246.982 58.9731 242.187 58.3146 237.624 56.1594L227.824 69.8912C227.12 70.8789 226.162 71.4735 224.95 71.6755Z" fill="#98EE6F"/>
<path d="M262.609 34.2439C262.609 43.5091 255.691 50.6475 247.601 50.6475C239.511 50.6475 232.594 43.5091 232.594 34.2439C232.594 24.9787 239.511 17.8403 247.601 17.8403C255.691 17.8403 262.609 24.9787 262.609 34.2439Z" stroke="#98EE6F" stroke-width="2"/>
</svg>
