<svg width="24" height="24" viewBox="0 0 24 24" fill="none" xmlns="http://www.w3.org/2000/svg">
<g clip-path="url(#clip0_633_12)">
<path d="M13.6559 15.0479C15.1181 14.8044 16.2824 14.0764 17.1487 12.864C18.015 11.6516 18.3265 10.3142 18.083 8.85199C17.8395 7.38975 17.1116 6.22547 15.8991 5.35915C14.6867 4.49284 13.3494 4.18141 11.8871 4.42488C10.4249 4.66835 9.2606 5.3963 8.39429 6.60874C7.52797 7.82117 7.21654 9.15851 7.46001 10.6208C7.70348 12.083 8.43143 13.2473 9.64387 14.1136C10.8563 14.9799 12.1936 15.2913 13.6559 15.0479ZM4.8024 22.7606C4.3914 22.829 4.01071 22.738 3.66035 22.4877C3.30999 22.2374 3.10059 21.9067 3.03216 21.4957C2.96109 21.0689 3.05205 20.6882 3.30502 20.3536L6.68267 15.6119C5.467 14.3603 4.7144 12.865 4.42487 11.1261C4.23668 9.99584 4.27605 8.87845 4.54297 7.77394C4.8099 6.66942 5.25465 5.68152 5.87721 4.81022C6.49977 3.93893 7.29027 3.19807 8.2487 2.58766C9.20714 1.97724 10.2515 1.57794 11.3818 1.38974C12.512 1.20155 13.6294 1.24091 14.7339 1.50784C15.8385 1.77477 16.8264 2.21952 17.6977 2.84208C18.5689 3.46464 19.3098 4.25514 19.9202 5.21357C20.5306 6.17201 20.9299 7.21636 21.1181 8.34663C21.3063 9.4769 21.267 10.5943 21 11.6988C20.7331 12.8033 20.2884 13.7912 19.6658 14.6625C19.0432 15.5338 18.2527 16.2747 17.2943 16.8851C16.3359 17.4955 15.2915 17.8948 14.1612 18.083C12.4224 18.3725 10.7639 18.145 9.18591 17.4005L5.79641 22.1442C5.55265 22.4854 5.22132 22.6908 4.8024 22.7606Z" fill="#98EE6F"/>
<path d="M17.827 9.82968C17.827 13.0304 15.4346 15.4964 12.6365 15.4964C9.83835 15.4964 7.446 13.0304 7.446 9.82968C7.446 6.62899 9.83835 4.16302 12.6365 4.16302C15.4346 4.16302 17.827 6.62899 17.827 9.82968Z" stroke="#98EE6F" stroke-width="2"/>
</g>
<defs>
<clipPath id="clip0_633_12">
<rect width="20" height="20" fill="white" transform="translate(19.7284) rotate(80.5468)"/>
</clipPath>
</defs>
</svg>
