<svg width="138" height="57" viewBox="0 0 138 57" fill="none" xmlns="http://www.w3.org/2000/svg">
<path d="M10.696 4.008H6.784L0.856 21H5.464L6.52 17.592H11.056L12.16 21H16.768L10.696 4.008ZM7.48 13.776L8.728 8.808H8.848L10.024 13.776H7.48ZM26.1252 15.696C25.1892 18.048 21.3492 17.472 21.3492 15.432V9.576C21.3492 7.464 25.1412 6.984 26.2932 9.096L29.7972 7.68C28.4292 4.656 25.9092 3.768 23.8212 3.768C20.4132 3.768 17.0532 5.736 17.0532 9.576V15.432C17.0532 19.296 20.4132 21.24 23.7492 21.24C25.8852 21.24 28.4532 20.184 29.8692 17.424L26.1252 15.696ZM35.7499 14.592H40.6459V21H44.9659V4.008H40.6459V10.44H35.7499V4.008H31.4299V21H35.7499V14.592ZM56.0007 4.008H52.0887L46.1607 21H50.7687L51.8247 17.592H56.3607L57.4647 21H62.0727L56.0007 4.008ZM52.7847 13.776L54.0327 8.808H54.1527L55.3287 13.776H52.7847ZM63.2112 4.008V21H69.5712C72.9792 21.024 76.1712 19.32 76.1712 15.408V9.696C76.1712 5.736 72.9792 4.008 69.5712 4.008H63.2112ZM67.5312 16.968V8.016H69.7152C71.1552 8.016 71.8512 8.712 71.8512 9.816V15.12C71.8512 16.224 71.1792 16.968 69.7152 16.968H67.5312ZM95.0905 18.168C96.6745 20.208 98.8345 21.24 100.875 21.24C103.995 21.24 107.451 19.44 107.595 16.152C107.786 11.976 104.763 10.92 101.739 10.368C100.419 10.08 99.5305 9.6 99.4825 8.784C99.5545 6.816 102.603 6.744 104.379 8.64L107.187 6.48C105.435 4.344 103.443 3.768 101.379 3.768C98.2585 3.768 95.2345 5.52 95.2345 8.856C95.2345 12.096 97.7305 13.824 100.467 14.256C101.859 14.448 103.419 15 103.371 15.96C103.251 17.784 99.5065 17.688 97.8025 15.624L95.0905 18.168ZM124.997 12.624L123.461 13.944L122.045 12.192C123.245 11.352 124.109 10.224 124.109 8.28C124.109 5.616 121.901 3.936 119.501 3.864C115.325 3.744 112.781 8.256 115.709 11.328C114.101 12.288 113.165 13.536 113.165 15.6C113.165 20.88 119.333 22.68 122.813 19.608L123.965 20.976H129.005L125.813 16.992L127.397 15.696L124.997 12.624ZM119.429 7.248C119.957 7.248 120.365 7.728 120.365 8.28C120.365 8.904 119.933 9.336 119.189 9.84C118.733 9.288 118.301 8.784 118.301 8.352C118.301 7.728 118.829 7.248 119.429 7.248ZM120.317 16.728C119.549 17.616 118.181 17.568 117.581 16.728C117.053 16.008 117.173 14.832 118.229 14.28L120.317 16.728ZM2.344 50H6.64V45.032H9.16C13.264 45.032 15.352 42.032 15.352 39.008C15.352 36.008 13.288 33.008 9.136 33.008H2.344V50ZM6.64 41.216V37.016H9.136C11.728 36.992 11.728 41.24 9.136 41.216H6.64ZM21.5239 37.04H29.0119V33.008H17.1799V50H29.0119V45.944H21.5239V43.4H28.4119V39.68H21.5239V37.04ZM40.3373 50H45.6893L41.0573 44.168C43.1213 43.52 44.3933 41.744 44.3933 38.6C44.2973 34.616 41.5853 33.008 38.0813 33.008H31.2893V50H35.6333V44.6H36.4013L40.3373 50ZM35.6333 40.904V37.016H38.1533C40.8653 37.016 40.8653 40.904 38.1533 40.904H35.6333ZM46.8049 33.008V50H53.1649C56.5729 50.024 59.7649 48.32 59.7649 44.408V38.696C59.7649 34.736 56.5729 33.008 53.1649 33.008H46.8049ZM51.1249 45.968V37.016H53.3089C54.7489 37.016 55.4449 37.712 55.4449 38.816V44.12C55.4449 45.224 54.7729 45.968 53.3089 45.968H51.1249ZM66.3588 33.008H62.0628V50H66.3588V33.008ZM69.0471 33.008V50H75.4071C78.8151 50.024 82.0071 48.32 82.0071 44.408V38.696C82.0071 34.736 78.8151 33.008 75.4071 33.008H69.0471ZM73.3671 45.968V37.016H75.5511C76.9911 37.016 77.6871 37.712 77.6871 38.816V44.12C77.6871 45.224 77.0151 45.968 75.5511 45.968H73.3671ZM83.8969 44.408C83.8969 48.296 87.4249 50.24 90.9529 50.24C94.4809 50.24 97.9849 48.296 97.9849 44.408V38.6C97.9849 34.712 94.4569 32.768 90.9289 32.768C87.4009 32.768 83.8969 34.688 83.8969 38.6V44.408ZM88.1929 38.6C88.1929 37.352 89.5369 36.68 90.8809 36.68C92.2729 36.68 93.6889 37.28 93.6889 38.6V44.408C93.6889 45.632 92.3209 46.256 90.9529 46.256C89.5849 46.256 88.1929 45.656 88.1929 44.408V38.6ZM99.4499 47.168C101.034 49.208 103.194 50.24 105.234 50.24C108.354 50.24 111.81 48.44 111.954 45.152C112.146 40.976 109.122 39.92 106.098 39.368C104.778 39.08 103.89 38.6 103.842 37.784C103.914 35.816 106.962 35.744 108.738 37.64L111.546 35.48C109.794 33.344 107.802 32.768 105.738 32.768C102.618 32.768 99.5939 34.52 99.5939 37.856C99.5939 41.096 102.09 42.824 104.826 43.256C106.218 43.448 107.778 44 107.73 44.96C107.61 46.784 103.866 46.688 102.162 44.624L99.4499 47.168Z" fill="#252525"/>
<g clip-path="url(#clip0_9_5)">
<path d="M86.6559 17.0479C88.1181 16.8044 89.2824 16.0764 90.1487 14.864C91.0151 13.6516 91.3265 12.3142 91.083 10.852C90.8395 9.38975 90.1116 8.22547 88.8992 7.35915C87.6867 6.49284 86.3494 6.18141 84.8871 6.42488C83.4249 6.66835 82.2606 7.3963 81.3943 8.60874C80.528 9.82117 80.2166 11.1585 80.46 12.6208C80.7035 14.083 81.4314 15.2473 82.6439 16.1136C83.8563 16.9799 85.1937 17.2913 86.6559 17.0479ZM77.8024 24.7606C77.3914 24.829 77.0107 24.738 76.6604 24.4877C76.31 24.2374 76.1006 23.9067 76.0322 23.4957C75.9611 23.0689 76.0521 22.6882 76.305 22.3536L79.6827 17.6119C78.467 16.3603 77.7144 14.865 77.4249 13.1261C77.2367 11.9958 77.2761 10.8784 77.543 9.77394C77.8099 8.66942 78.2547 7.68152 78.8772 6.81022C79.4998 5.93893 80.2903 5.19807 81.2487 4.58766C82.2072 3.97724 83.2515 3.57794 84.3818 3.38974C85.5121 3.20155 86.6294 3.24091 87.734 3.50784C88.8385 3.77477 89.8264 4.21952 90.6977 4.84208C91.569 5.46464 92.3098 6.25514 92.9202 7.21357C93.5307 8.17201 93.93 9.21636 94.1182 10.3466C94.3063 11.4769 94.267 12.5943 94 13.6988C93.7331 14.8033 93.2884 15.7912 92.6658 16.6625C92.0432 17.5338 91.2528 18.2747 90.2943 18.8851C89.3359 19.4955 88.2915 19.8948 87.1613 20.083C85.4224 20.3725 83.7639 20.145 82.1859 19.4005L78.7964 24.1442C78.5527 24.4854 78.2213 24.6908 77.8024 24.7606Z" fill="#252525"/>
<path d="M90.827 11.8297C90.827 15.0304 88.4346 17.4964 85.6365 17.4964C82.8384 17.4964 80.446 15.0304 80.446 11.8297C80.446 8.62899 82.8384 6.16302 85.6365 6.16302C88.4346 6.16302 90.827 8.62899 90.827 11.8297Z" stroke="#252525" stroke-width="2"/>
</g>
<defs>
<clipPath id="clip0_9_5">
<rect width="20" height="20" fill="white" transform="translate(92.7284 2) rotate(80.5468)"/>
</clipPath>
</defs>
</svg>
