<svg width="34" height="34" viewBox="0 0 34 34" fill="none" xmlns="http://www.w3.org/2000/svg">
<path d="M14.875 22.7524L9.5625 17.4388L11.0638 15.9375L14.875 19.7476L22.9341 11.6875L24.4375 13.1909L14.875 22.7524Z" fill="#676767"/>
<path d="M17 2.125C14.058 2.125 11.1821 2.9974 8.7359 4.63189C6.28972 6.26638 4.38315 8.58953 3.2573 11.3076C2.13145 14.0256 1.83687 17.0165 2.41083 19.902C2.98478 22.7874 4.40149 25.4379 6.48179 27.5182C8.5621 29.5985 11.2126 31.0152 14.098 31.5892C16.9835 32.1631 19.9744 31.8686 22.6924 30.7427C25.4105 29.6169 27.7336 27.7103 29.3681 25.2641C31.0026 22.8179 31.875 19.942 31.875 17C31.875 13.0549 30.3078 9.27139 27.5182 6.48179C24.7286 3.69218 20.9451 2.125 17 2.125ZM17 29.75C14.4783 29.75 12.0132 29.0022 9.91649 27.6012C7.81976 26.2002 6.18556 24.209 5.22054 21.8792C4.25553 19.5495 4.00303 16.9859 4.49499 14.5126C4.98696 12.0393 6.20128 9.76751 7.9844 7.98439C9.76751 6.20127 12.0393 4.98695 14.5126 4.49499C16.9859 4.00303 19.5495 4.25552 21.8792 5.22054C24.209 6.18555 26.2003 7.81975 27.6012 9.91648C29.0022 12.0132 29.75 14.4783 29.75 17C29.75 20.3815 28.4067 23.6245 26.0156 26.0156C23.6245 28.4067 20.3815 29.75 17 29.75Z" fill="#676767"/>
</svg>
