<svg width="683" height="683" viewBox="0 0 683 683" fill="none" xmlns="http://www.w3.org/2000/svg">
<g clip-path="url(#clip0_118_6697)">
<path d="M313.148 175.989C405.191 160.341 492.628 222.369 508.276 314.412C523.924 406.456 461.896 493.893 369.852 509.54C277.809 525.188 190.372 463.161 174.724 371.117C159.077 279.074 221.104 191.637 313.148 175.989Z" stroke="url(#paint0_radial_118_6697)" stroke-width="10.4755"/>
<path d="M341.5 191.303C425.092 191.303 492.962 259.173 492.962 342.765C492.962 426.356 425.092 494.226 341.5 494.226C257.909 494.226 190.039 426.356 190.039 342.765C190.039 259.173 257.909 191.303 341.5 191.303Z" fill="#B0E596"/>
<g opacity="0.5">
<path d="M432.636 182.291H250.365C235.276 182.291 223.046 170.061 223.046 154.973C223.046 139.884 235.276 127.653 250.365 127.653H432.636C447.724 127.653 459.955 139.884 459.955 154.973C459.955 170.061 447.724 182.291 432.636 182.291Z" fill="#FEFEFE"/>
<path d="M400.203 151.451H253.032C251.643 151.451 250.517 150.326 250.517 148.936C250.517 147.548 251.643 146.422 253.032 146.422H400.203C401.592 146.422 402.717 147.548 402.717 148.936C402.717 150.326 401.592 151.451 400.203 151.451Z" fill="#5E6187"/>
<path d="M346.658 163.523H253.031C251.642 163.523 250.517 162.397 250.517 161.009C250.517 159.619 251.642 158.494 253.031 158.494H346.658C348.047 158.494 349.173 159.619 349.173 161.009C349.173 162.397 348.047 163.523 346.658 163.523Z" fill="#5E6187"/>
</g>
<g opacity="0.5">
<path d="M432.636 320.592H250.365C235.276 320.592 223.046 308.362 223.046 293.274C223.046 278.185 235.276 265.954 250.365 265.954H432.636C447.724 265.954 459.955 278.185 459.955 293.274C459.955 308.362 447.724 320.592 432.636 320.592Z" fill="#FEFEFE"/>
<path d="M400.203 289.752H253.032C251.643 289.752 250.517 288.627 250.517 287.238C250.517 285.849 251.643 284.723 253.032 284.723H400.203C401.592 284.723 402.717 285.849 402.717 287.238C402.717 288.627 401.592 289.752 400.203 289.752Z" fill="#5E6187"/>
<path d="M346.658 301.824H253.031C251.642 301.824 250.517 300.698 250.517 299.31C250.517 297.92 251.642 296.795 253.031 296.795H346.658C348.047 296.795 349.173 297.92 349.173 299.31C349.173 300.698 348.047 301.824 346.658 301.824Z" fill="#5E6187"/>
<path d="M432.636 237.353H250.365C235.276 237.353 223.046 225.123 223.046 210.035C223.046 194.947 235.276 182.716 250.365 182.716H432.636C447.724 182.716 459.955 194.947 459.955 210.035C459.955 225.123 447.724 237.353 432.636 237.353Z" fill="#FEFEFE"/>
<path d="M400.203 206.513H253.032C251.643 206.513 250.517 205.388 250.517 203.999C250.517 202.61 251.643 201.484 253.032 201.484H400.203C401.592 201.484 402.717 202.61 402.717 203.999C402.717 205.388 401.592 206.513 400.203 206.513Z" fill="#5E6187"/>
<path d="M346.658 218.585H253.031C251.642 218.585 250.517 217.459 250.517 216.071C250.517 214.682 251.642 213.556 253.031 213.556H346.658C348.047 213.556 349.173 214.682 349.173 216.071C349.173 217.459 348.047 218.585 346.658 218.585Z" fill="#5E6187"/>
<path d="M432.636 154.115H250.365C235.276 154.115 223.046 141.884 223.046 126.797C223.046 111.708 235.276 99.4768 250.365 99.4768H432.636C447.724 99.4768 459.955 111.708 459.955 126.797C459.955 141.884 447.724 154.115 432.636 154.115Z" fill="#FEFEFE"/>
<path d="M400.203 123.275H253.032C251.643 123.275 250.517 122.149 250.517 120.76C250.517 119.372 251.643 118.245 253.032 118.245H400.203C401.592 118.245 402.717 119.372 402.717 120.76C402.717 122.149 401.592 123.275 400.203 123.275Z" fill="#5E6187"/>
<path d="M346.658 135.347H253.031C251.642 135.347 250.517 134.221 250.517 132.832C250.517 131.443 251.642 130.318 253.031 130.318H346.658C348.047 130.318 349.173 131.443 349.173 132.832C349.173 134.221 348.047 135.347 346.658 135.347Z" fill="#5E6187"/>
<path d="M432.636 70.8759H250.365C235.276 70.8759 223.046 58.6457 223.046 43.5578C223.046 28.4691 235.276 16.238 250.365 16.238H432.636C447.724 16.238 459.955 28.4691 459.955 43.5578C459.955 58.6457 447.724 70.8759 432.636 70.8759Z" fill="#FEFEFE"/>
<path d="M400.203 40.0359H253.032C251.643 40.0359 250.517 38.9105 250.517 37.5212C250.517 36.1328 251.643 35.0066 253.032 35.0066H400.203C401.592 35.0066 402.717 36.1328 402.717 37.5212C402.717 38.9105 401.592 40.0359 400.203 40.0359Z" fill="#5E6187"/>
<path d="M346.658 52.1081H253.031C251.642 52.1081 250.517 50.9819 250.517 49.5935C250.517 48.2042 251.642 47.0789 253.031 47.0789H346.658C348.047 47.0789 349.173 48.2042 349.173 49.5935C349.173 50.9819 348.047 52.1081 346.658 52.1081Z" fill="#5E6187"/>
</g>
<g opacity="0.5">
<path d="M432.636 452.64H250.365C235.276 452.64 223.046 440.41 223.046 425.322C223.046 410.233 235.276 398.002 250.365 398.002H432.636C447.724 398.002 459.955 410.233 459.955 425.322C459.955 440.41 447.724 452.64 432.636 452.64Z" fill="#FEFEFE"/>
<path d="M400.203 421.8H253.032C251.643 421.8 250.517 420.675 250.517 419.285C250.517 417.897 251.643 416.771 253.032 416.771H400.203C401.592 416.771 402.717 417.897 402.717 419.285C402.717 420.675 401.592 421.8 400.203 421.8Z" fill="#5E6187"/>
<path d="M346.658 433.872H253.031C251.642 433.872 250.517 432.746 250.517 431.357C250.517 429.968 251.642 428.843 253.031 428.843H346.658C348.047 428.843 349.173 429.968 349.173 431.357C349.173 432.746 348.047 433.872 346.658 433.872Z" fill="#5E6187"/>
</g>
<path d="M396.019 484.76C397.3 485.649 398.062 486.948 398.746 488.292C400.116 490.979 401.464 493.676 402.807 496.377C403.272 497.312 403.828 498.168 404.617 498.861C405.045 499.238 405.506 499.546 406.096 499.539C407.206 499.526 408.324 499.605 409.41 499.431C411.281 499.132 413.123 498.652 414.984 498.286C415.68 498.15 416.397 498.121 417.105 498.044C419.755 498.592 420.986 499.701 421.388 502.022C421.602 503.266 421.587 504.52 421.044 505.712C420.818 506.209 420.633 506.723 420.428 507.23L420.476 507.202L419.928 507.717C418.869 508.419 417.842 509.182 416.742 509.814C411.282 512.958 405.803 516.067 400.329 519.188C399.536 518.171 399.009 517.073 398.732 515.776C398.364 514.06 397.53 512.486 396.592 510.994C394.843 508.221 392.883 505.614 390.493 503.342C388.645 501.583 386.901 499.713 384.825 498.209C384.447 497.936 384.001 497.758 383.588 497.534C385.066 495.987 386.541 494.442 388.021 492.9C390.328 490.492 392.636 488.082 394.953 485.685C395.279 485.347 395.663 485.066 396.019 484.76Z" fill="#FDD8BD"/>
<path d="M420.428 507.227C420.632 506.72 420.818 506.207 421.044 505.711C421.588 504.518 421.601 503.266 421.386 502.02C420.987 499.699 419.754 498.589 417.105 498.042C417.42 497.81 417.703 497.489 418.054 497.361C421.444 496.137 424.608 494.435 427.832 492.856C429.48 492.051 431.151 491.284 432.85 490.598C435.563 489.503 438.407 489.189 441.313 489.42C441.79 489.459 442.275 489.491 442.736 489.609C443.509 489.807 444.288 490.051 444.81 490.717C445.279 491.318 445.334 492.037 445.293 492.771C444.717 493.025 444.109 493.225 443.573 493.547C442.277 494.319 440.996 495.123 439.74 495.962C434.247 499.629 428.446 502.786 422.827 506.246C422.096 506.696 421.364 507.233 420.428 507.227Z" fill="#493A65"/>
<path d="M420.428 507.228C421.363 507.234 422.096 506.697 422.827 506.247C428.445 502.788 434.246 499.629 439.739 495.962C440.996 495.124 442.276 494.32 443.573 493.548C444.109 493.226 444.717 493.025 445.293 492.771C445.877 493.007 446.47 493.23 447.046 493.492C447.305 493.609 447.366 494.147 447.134 494.324C446.25 495.001 445.391 495.723 444.445 496.303C440.573 498.683 436.696 501.057 432.778 503.361C422.604 509.342 412.409 515.289 402.22 521.246C401.67 521.567 401.109 521.87 400.531 522.14C400.248 522.271 399.925 522.338 399.613 522.381C399.234 522.434 398.6 522.021 398.461 521.66C398.304 521.249 398.382 520.839 398.684 520.555C399.202 520.067 399.777 519.64 400.329 519.186C405.801 516.066 411.282 512.957 416.742 509.814C417.841 509.181 418.869 508.418 419.928 507.716L420.476 507.201L420.428 507.228Z" fill="#A55B73"/>
<path d="M252.167 270.798C251.367 271.388 250.462 271.206 249.576 271.154C249.662 270.445 249.71 269.728 249.843 269.027C250.42 265.987 251.01 262.948 251.617 259.915C252.24 256.802 252.861 253.69 253.537 250.59C254.018 248.393 254.211 247.712 256.81 247.707C255.489 254.237 254.164 260.768 252.845 267.3C252.609 268.465 252.392 269.631 252.167 270.798Z" fill="#493A65"/>
<path d="M256.812 247.707C254.211 247.712 254.017 248.393 253.537 250.589C252.859 253.689 252.24 256.802 251.617 259.915C251.009 262.95 250.42 265.985 249.843 269.025C249.709 269.725 249.663 270.442 249.577 271.151C249.159 271.273 248.743 271.396 248.327 271.517C248.251 271.225 248.08 270.92 248.116 270.644C248.23 269.786 248.442 268.945 248.578 268.09C248.665 267.551 248.682 267.001 248.73 266.457C249.053 265.07 249.419 263.69 249.692 262.294C250.685 257.229 251.654 252.162 252.616 247.092C252.715 246.564 252.989 246.249 253.603 246.34C254.621 246.492 255.639 246.662 256.639 246.902C257.056 247.001 256.851 247.412 256.812 247.707Z" fill="#060316"/>
<path d="M532.974 487.52C532.974 487.52 519.69 418.847 553.105 353.207" stroke="#C5E063" stroke-width="2"/>
<path d="M532.974 487.52C532.974 487.52 533.007 430.422 563.371 414.104" stroke="#C5E063" stroke-width="2"/>
<path d="M536.306 487.736C536.306 487.736 533.8 472.364 546.73 460.734" stroke="#C5E063" stroke-width="2"/>
<path d="M536.306 487.736C536.306 487.736 543.931 468.991 526.84 449.173" stroke="#C5E063" stroke-width="2"/>
<path d="M536.307 487.736C536.307 487.736 544.145 432.818 536.168 401.463" stroke="#C5E063" stroke-width="2"/>
<path d="M528.21 450.033C528.06 450.199 527.927 450.486 527.753 450.514C527.049 450.625 526.328 450.742 525.622 450.701C522.517 450.523 519.414 450.326 516.315 450.063C514.403 449.902 512.544 449.426 510.757 448.707C509.494 448.199 508.327 447.516 507.288 446.625C506.862 446.257 506.786 445.809 507.125 445.366C507.805 444.481 508.514 443.619 509.209 442.747C509.507 442.375 509.822 442.01 510.09 441.616C510.207 441.444 510.415 441.166 510.102 441.016C509.939 440.938 509.645 440.993 509.472 441.094C508.785 441.498 508.123 441.945 507.452 442.373C506.849 442.759 506.252 443.16 505.63 443.519C505.069 443.844 504.615 443.675 504.26 443.061C504.221 442.993 504.18 442.923 504.146 442.851C502.123 438.588 500.324 434.245 499.838 429.496C499.643 427.596 499.554 425.676 499.582 423.769C499.638 420.015 500.208 416.304 500.719 412.591C500.766 412.248 500.941 412.013 501.303 411.956C501.254 412.76 501.774 413.275 502.24 413.818C504.108 415.991 505.98 418.162 507.843 420.34C508.255 420.822 508.738 421.281 509.013 421.838C509.478 422.79 510.181 423.54 510.84 424.333C511.196 424.761 511.59 425.165 511.903 425.623C513.468 427.909 515.726 430.545 517.347 432.793C519.712 436.076 521.81 439.155 523.977 442.566C525.336 444.708 525.864 446.97 527.185 449.137C527.442 449.559 527.674 449.955 528.21 450.033Z" fill="#4AAD52"/>
<path d="M528.209 450.033C527.673 449.955 527.442 449.559 527.185 449.137C525.864 446.97 524.536 444.807 523.177 442.665C521.01 439.254 518.941 435.781 516.576 432.498C514.955 430.25 513.468 427.909 511.903 425.623C511.59 425.165 511.196 424.761 510.84 424.333C510.181 423.54 509.478 422.79 509.013 421.838C508.738 421.281 508.255 420.822 507.843 420.34C505.98 418.162 504.108 415.991 502.24 413.818C501.774 413.275 501.254 412.76 501.303 411.956C501.996 411.554 502.71 411.766 503.4 411.925C505.81 412.483 508.229 413.013 510.613 413.664C514.078 414.609 517.516 415.648 520.964 416.65C521.348 416.761 521.735 416.866 522.106 417.009C522.604 417.203 522.84 417.638 522.719 418.156C522.518 419.011 522.283 419.859 522.084 420.714C522.053 420.848 522.103 421.109 522.18 421.136C522.373 421.207 522.656 421.267 522.81 421.175C523.906 420.522 524.974 419.823 526.06 419.154C526.406 418.941 526.898 419.042 527.139 419.333C527.189 419.396 527.235 419.463 527.278 419.531C530.136 424.025 532.412 428.738 532.663 434.188C532.858 438.413 532.088 442.462 530.311 446.298C529.71 447.593 529.169 448.934 528.209 450.033Z" fill="#507255"/>
<path d="M564.353 455.626C565.033 456.889 565.71 458.153 566.395 459.413C566.699 459.974 567.029 460.524 567.323 461.091C567.556 461.539 567.488 461.926 567.114 462.137C563.439 464.2 559.594 465.699 555.274 465.359C552.805 465.165 550.341 464.872 547.982 464.029C547.533 463.87 547.054 463.791 546.59 463.675C546.466 463.531 546.34 463.389 546.215 463.244C546.176 463.093 546.176 462.941 546.217 462.789C546.454 462.291 546.736 461.806 546.921 461.288C548.793 456.058 550.54 451.592 554.061 447.333C556.946 443.843 561.32 439.809 564.701 436.809C567.318 434.487 570.062 433.017 572.864 430.909C573.212 430.648 573.754 430.645 574.205 430.524C574.287 430.742 574.439 430.961 574.439 431.18C574.417 437.168 574.178 443.142 573.177 449.061C572.681 451.995 571.686 454.762 570.39 457.428C570.217 457.781 570.008 458.132 569.747 458.419C569.621 458.554 569.271 458.652 569.127 458.574C568.641 458.31 568.19 457.976 567.745 457.644C566.727 456.888 565.723 456.114 564.712 455.349C564.552 455.257 564.392 455.166 564.232 455.077C564.272 455.259 564.312 455.442 564.353 455.626Z" fill="#6EB257"/>
<path d="M574.205 430.523C573.754 430.645 573.213 430.647 572.864 430.908C570.062 433.015 567.169 435.028 564.554 437.348C561.171 440.349 558.083 443.673 555.199 447.163C551.678 451.423 548.793 456.058 546.921 461.288C546.735 461.807 546.453 462.291 546.216 462.789C545.701 461.733 545.19 460.675 544.677 459.619C544.21 458.168 543.952 456.644 543.129 455.321C543.034 454.616 542.965 453.903 542.839 453.205C542.347 450.502 542.573 447.843 543.296 445.213C543.505 444.451 543.785 443.706 543.993 442.944C544.048 442.74 543.957 442.496 543.932 442.271C543.932 442.269 543.941 442.272 543.941 442.272C544.106 442.438 544.305 442.621 544.5 442.361C545.163 441.47 545.803 440.562 546.452 439.658C546.93 439.56 547.306 439.336 547.469 438.843C548.583 438.073 549.672 437.259 550.818 436.538C553.68 434.733 556.846 433.616 560.059 432.646C563.962 431.467 567.961 430.695 571.968 429.966C572.511 429.867 573.082 429.859 573.636 429.881C573.982 429.893 574.187 430.156 574.205 430.523Z" fill="#4AAD52"/>
<path d="M603.369 382.416C603.495 382.606 603.711 382.787 603.727 382.986C603.776 383.539 603.803 384.108 603.731 384.657C603.067 389.72 602.619 394.817 601.556 399.824C601.21 401.463 600.813 403.094 600.385 404.714C600.014 406.115 599.321 407.377 598.48 408.556C597.946 409.305 597.25 409.522 596.384 409.267C595.848 409.109 595.313 408.949 594.773 408.806C592.536 408.212 590.295 407.616 588.053 407.037C587.222 406.822 586.909 406.902 587.104 407.13C587.298 407.353 587.553 407.539 587.814 407.683C589.698 408.727 591.594 409.751 593.482 410.789C594.04 411.096 594.599 411.408 595.138 411.748C595.608 412.045 595.695 412.542 595.352 412.964C590.371 419.113 584.137 422.86 576.024 422.848C574.359 422.844 572.663 422.67 571.033 422.326C567.436 421.563 563.951 420.406 560.608 418.85C560.035 418.584 559.461 418.266 558.984 417.861C558.721 417.639 558.658 417.181 558.504 416.832C558.919 416.864 559.289 416.789 559.572 416.442C560.223 415.637 560.899 414.853 561.536 414.036C563.595 411.4 565.758 408.852 568.171 406.529C571.149 403.661 574.206 400.886 577.713 398.657C577.983 398.486 578.29 398.335 578.487 398.099C579.328 397.097 580.473 396.513 581.539 395.823C583.746 394.391 585.967 392.979 588.187 391.566C588.724 391.224 589.238 390.791 589.829 390.601C590.996 390.229 591.956 389.525 592.97 388.899C594.121 388.184 595.2 387.31 596.429 386.779C597.761 386.202 598.949 385.425 600.181 384.699C600.863 384.297 601.572 383.936 602.296 383.617C602.855 383.37 603.193 382.978 603.369 382.416Z" fill="#4AAD52"/>
<path d="M603.369 382.416C603.193 382.978 602.856 383.369 602.296 383.616C601.572 383.935 600.863 384.297 600.181 384.699C598.948 385.425 598.319 386.243 596.986 386.82C595.758 387.351 594.516 388.229 593.365 388.944C592.351 389.57 591.472 390.454 590.305 390.827C589.714 391.016 589.303 391.351 588.766 391.693C586.546 393.106 584.998 394.22 582.79 395.651C581.725 396.342 580.078 397.181 579.236 398.183C579.04 398.419 577.963 399.13 577.694 399.301C574.187 401.53 571.351 404.028 568.373 406.896C565.96 409.219 564.135 411.518 562.075 414.155C561.438 414.971 560.507 416.186 559.856 416.99C559.573 417.338 558.918 416.863 558.503 416.831C558.338 416.385 558.125 415.952 558.016 415.495C557.058 411.436 556.521 407.327 556.775 403.152C556.962 400.105 557.606 397.15 558.936 394.369C560.308 391.502 562.26 389.11 564.816 387.237C569.537 383.774 574.807 381.599 580.601 380.735C582.583 380.44 584.577 380.412 586.564 380.737C587.432 380.878 587.654 381.174 587.617 382.014C587.569 383.044 587.53 384.074 587.496 385.105C587.493 385.178 587.556 385.317 587.577 385.314C587.731 385.298 587.927 385.303 588.022 385.21C588.305 384.933 588.561 384.623 588.803 384.309C589.391 383.553 589.993 382.806 590.533 382.017C591.039 381.281 591.67 380.99 592.568 381.08C594.951 381.316 597.338 381.498 599.724 381.703C600.678 381.787 601.635 381.847 602.583 381.978C602.86 382.016 603.107 382.264 603.369 382.416Z" fill="#507255"/>
<path d="M540.25 359.162C541.112 360.183 541.969 361.208 542.837 362.223C545.197 364.98 547.338 367.896 549.262 370.974C549.382 371.166 549.583 371.306 549.747 371.47C549.973 371.972 550.165 372.493 550.432 372.971C552.171 376.081 552.581 379.351 551.786 382.82C551.36 384.683 550.725 386.461 550.011 388.223C549.715 388.954 549.449 389.697 549.171 390.436C548.747 390.698 548.425 391.025 548.42 391.567C548.004 392.244 547.59 392.924 547.171 393.6C545.58 396.18 543.878 398.681 541.839 400.933C540.879 401.992 539.911 403.051 538.572 403.66C537.954 403.338 537.71 402.754 537.508 402.138C536.672 399.57 535.829 397.002 534.997 394.433C534.385 392.544 533.787 390.651 533.182 388.76C532.284 385.961 531.39 383.161 530.491 380.362C529.761 378.093 529.032 375.823 528.293 373.558C527.751 371.896 527.2 370.236 526.635 368.582C525.916 366.475 525.156 364.382 524.46 362.268C523.241 358.569 522.059 354.86 520.861 351.156C520.445 349.871 519.999 348.594 519.626 347.297C519.498 346.852 519.544 346.355 519.511 345.884C519.855 345.597 520.262 345.596 520.636 345.749C521.814 346.231 523.023 346.662 524.137 347.265C529.423 350.13 534.24 353.653 538.627 357.763C539.148 358.252 539.709 358.697 540.25 359.162Z" fill="#4AAD52"/>
<path d="M519.511 345.884C519.546 346.356 519.499 346.852 519.627 347.297C520 348.594 520.445 349.871 520.861 351.156C522.059 354.86 524.131 357.981 525.35 361.679C526.046 363.793 526.891 366.25 527.61 368.357C528.175 370.012 528.547 371.894 529.089 373.555C529.829 375.821 530.43 378.158 531.159 380.426C532.058 383.225 532.767 385.888 533.664 388.687C534.27 390.578 534.934 392.636 535.546 394.525C536.378 397.096 537.104 399.611 537.942 402.18C538.143 402.796 537.954 403.338 538.572 403.66C538.536 403.802 538.487 403.94 538.428 404.074C538.123 404.198 537.815 404.324 537.507 404.448C536.823 404.644 536.162 404.646 535.489 404.343C534.793 404.03 534.066 403.781 533.353 403.505C530.714 402.171 528.076 400.838 525.438 399.505C524.567 398.948 523.706 398.377 522.827 397.835C520.172 396.196 517.689 394.346 515.527 392.08C511.858 388.233 509.88 383.68 509.591 378.354C509.457 375.874 509.584 373.417 509.831 370.959C509.967 369.609 510.264 369.354 511.669 369.344C513.659 369.331 515.651 369.359 517.642 369.365C518.001 369.367 518.362 369.352 519.073 369.337C517.974 368.439 516.963 368.287 515.983 368.06C515.029 367.696 514.073 367.34 513.123 366.968C512.685 366.797 512.244 366.618 511.825 366.402C511.429 366.2 511.287 365.816 511.356 365.403C511.432 364.938 511.55 364.474 511.712 364.033C512.29 362.474 512.905 360.931 513.48 359.373C513.811 358.483 514.091 357.576 514.395 356.677C515.634 354.301 516.357 351.724 517.31 349.237C517.647 348.36 518.017 347.494 518.423 346.648C518.628 346.22 518.96 345.871 519.511 345.884Z" fill="#6EB257"/>
<path d="M553.713 355.04C553.108 355.245 552.614 354.998 552.178 354.624C551.937 354.42 551.735 354.163 551.548 353.905C549.54 351.117 547.588 348.293 545.974 345.25C542.396 338.497 542.131 331.538 544.571 324.38C545.642 321.24 547.353 318.467 549.307 315.826C550.115 314.735 550.971 313.68 551.818 312.622C552.264 312.066 552.819 311.919 553.524 312.135C554.668 312.487 555.832 312.773 556.993 313.066C557.098 313.093 557.298 312.993 557.353 312.895C557.414 312.785 557.415 312.575 557.348 312.471C556.78 311.602 556.18 310.754 555.613 309.885C555.211 309.275 555.316 308.92 555.991 308.539C556.479 308.263 556.977 308.007 557.483 307.77C562.691 305.326 567.96 303.023 573.379 301.081C575.1 300.463 576.893 300.036 578.667 299.576C579.11 299.462 579.604 299.559 580.076 299.558C579.977 299.945 579.946 300.366 579.769 300.713C578.099 303.969 576.426 307.225 574.714 310.458C573.076 313.552 571.396 316.624 569.723 319.7C569.266 320.539 568.733 321.339 568.304 322.192C566.632 325.534 564.998 328.893 563.33 332.235C561.803 335.293 560.403 338.407 559.089 341.563C557.932 344.347 556.605 347.065 555.525 349.876C554.871 351.574 553.932 353.187 553.713 355.04Z" fill="#4AAD52"/>
<path d="M553.713 355.04C553.932 353.187 554.165 351.096 554.818 349.398C555.899 346.586 556.602 344.137 557.759 341.353C559.073 338.197 560.378 335.144 561.905 332.086C563.573 328.743 566.071 324.764 567.743 321.423C568.172 320.569 573.076 313.552 574.713 310.458C576.426 307.224 578.098 303.969 579.767 300.713C579.945 300.366 579.975 299.945 580.074 299.558C581.195 299.449 581.916 299.987 582.276 301.002C582.649 302.055 583.052 303.109 583.272 304.198C583.91 307.326 584.459 310.471 585.042 313.609C585.072 313.766 585.102 313.924 585.117 314.083C585.193 314.911 584.909 315.335 584.131 315.425C583.02 315.552 581.907 315.622 580.795 315.732C580.566 315.754 580.339 315.837 580.118 315.908C580.066 315.925 580 316.01 580.004 316.059C580.008 316.132 580.051 316.236 580.11 316.265C580.529 316.479 580.943 316.718 581.384 316.872C582.288 317.187 583.206 317.464 584.122 317.739C585.153 318.05 585.745 318.795 585.932 319.785C586.121 320.798 586.25 321.845 586.217 322.871C586.101 326.472 585.613 330.036 584.757 333.534C583.995 336.639 582.946 339.658 581.751 342.624C581.572 343.068 581.377 343.507 581.171 343.938C580.866 344.565 580.405 344.75 579.812 344.441C578.256 343.629 576.714 342.79 575.162 341.968C574.669 341.707 574.172 341.453 573.665 341.223C573.535 341.164 573.261 341.152 573.225 341.218C573.126 341.39 573.027 341.652 573.093 341.814C573.777 343.517 574.494 345.208 575.198 346.903C575.442 347.494 575.68 348.087 575.906 348.683C576.065 349.101 575.977 349.501 575.616 349.749C574.962 350.197 574.314 350.693 573.589 350.986C572.409 351.462 571.186 351.868 569.949 352.171C564.829 353.43 559.621 354.234 554.423 355.09C554.195 355.128 553.951 355.06 553.713 355.04Z" fill="#6EB257"/>
<path d="M160.176 256.453C160.597 257.174 160.594 257.965 160.573 258.766C160.361 266.942 159.704 275.089 158.946 283.229C158.879 283.934 158.725 284.642 158.512 285.317C157.999 286.938 157.254 287.518 155.516 287.394C154.102 287.293 152.693 287.012 151.304 286.705C149.915 286.398 148.556 285.959 147.186 285.578C146.92 285.427 146.668 285.24 146.386 285.133C144.472 284.404 142.54 283.728 140.639 282.967C136.686 281.384 132.875 279.511 129.222 277.317C129.057 277.148 128.909 276.959 128.724 276.817C126.414 275.04 125.078 272.682 124.408 269.87C123.625 266.59 123.322 263.282 123.556 259.928C123.745 257.228 124.011 254.534 124.238 251.837C124.346 250.56 124.302 249.291 123.989 248.043C123.712 246.948 123.241 245.948 122.445 245.123C120.67 243.287 118.211 243.107 116.201 244.681C114.886 245.712 114.079 247.08 113.909 248.724C113.753 250.221 113.727 251.741 113.768 253.247C113.842 255.96 113.694 258.656 113.355 261.345C113.252 262.147 113.065 262.905 112.566 263.559C111.725 263.389 111.196 262.774 110.674 262.181C109.94 261.342 109.229 260.482 108.549 259.599C104.708 254.61 101.085 249.467 97.7389 244.133C96.1725 241.635 94.7039 239.084 93.5919 236.345C92.4057 233.419 91.7887 230.393 92.2222 227.245C92.427 225.758 92.8012 224.277 93.2504 222.84C93.9626 220.559 95.3843 218.784 97.4201 217.497C99.5736 216.135 101.718 214.756 103.841 213.349C107.964 210.615 111.848 207.572 115.522 204.255C117.354 202.601 119.195 200.955 121.075 199.355C122.958 197.753 124.963 196.317 127.134 195.114C131.335 192.784 135.864 191.682 140.632 191.659C144.897 191.638 148.784 192.943 152.173 195.57C153.175 196.348 154.136 197.206 154.999 198.134C158.698 202.105 161.279 206.73 162.798 211.933C163.288 213.612 163.605 215.331 163.559 217.107C163.49 219.811 162.417 222.033 160.469 223.86C158.948 225.286 157.205 226.396 155.375 227.381C154.401 227.905 153.446 228.463 152.481 229.006C148.331 230.598 144.184 232.2 140.208 234.201C139.357 234.629 138.518 235.103 137.747 235.658C136.781 236.354 135.828 237.089 134.982 237.921C132.865 240.002 131.657 242.545 131.38 245.517C130.866 251.034 132.204 256.105 135.196 260.72C137.793 264.724 141.302 267.821 145.333 270.334C145.934 270.708 146.592 271.024 147.264 271.247C148.391 271.621 149.156 271.204 149.477 270.107C149.612 269.65 149.654 269.168 149.766 268.705C150.154 267.076 150.641 265.482 151.547 264.05C153.003 261.749 154.737 259.684 156.822 257.926C157.365 257.467 157.987 257.098 158.569 256.683C159.067 256.327 159.618 256.378 160.176 256.453Z" fill="#060316"/>
<path d="M112.782 263.799C113.279 263.143 113.465 262.382 113.562 261.58C113.888 258.889 114.023 256.191 113.936 253.478C113.888 251.971 113.908 250.45 114.055 248.952C114.217 247.307 115.018 245.934 116.33 244.897C118.332 243.314 120.792 243.479 122.577 245.31C123.377 246.13 123.853 247.127 124.135 248.223C124.455 249.468 124.504 250.739 124.403 252.017C124.189 254.716 123.936 257.412 123.761 260.114C123.543 263.469 123.6 267.05 124.654 270.262C125.558 273.018 126.28 275.178 128.735 276.761C128.931 276.888 129.096 277.066 129.276 277.221C128.556 277.378 127.853 277.328 127.157 277.085C127.057 277.049 126.838 277.153 126.784 277.252C126.728 277.356 126.751 277.589 126.832 277.668C128.88 279.677 130.924 281.689 133.003 283.666C134.398 284.992 135.499 286.544 136.612 288.094C139.134 291.602 141.063 295.444 142.914 299.328C143.083 299.681 143.155 300.082 143.271 300.461C141.7 301.074 140.039 301.198 138.384 301.307C132.794 301.676 127.481 300.494 122.341 298.366C120.132 297.451 117.66 296.44 115.591 295.235C114.371 294.524 113.19 293.634 111.68 293.567C112.09 291.39 112.479 289.217 112.738 287.011C113.031 284.501 113.563 282.02 113.942 279.52C114.202 277.8 114.186 276.705 114.596 275.024C114.923 273.958 114.843 273.282 115.09 272.35C115.654 270.279 115.413 268.93 114.639 267.547C114.328 266.926 113.738 265.663 113.337 265.076C113.082 264.699 112.963 264.228 112.782 263.799Z" fill="#FDD8BD"/>
<path d="M160.444 256.135C159.886 256.063 159.397 256.101 158.901 256.46C158.321 256.879 157.724 257.272 157.183 257.735C155.108 259.505 153.3 261.476 151.857 263.786C150.958 265.223 150.481 266.82 150.102 268.452C149.993 268.916 149.954 269.399 149.822 269.856C149.507 270.955 148.511 271.72 147.38 271.353C146.707 271.133 146.025 270.757 145.421 270.386C141.374 267.896 137.867 264.712 135.245 260.722C132.225 256.123 130.79 250.866 131.272 245.344C131.532 242.37 133.024 239.839 135.129 237.745C135.97 236.907 136.858 236.294 137.819 235.593C138.588 235.034 139.615 234.554 140.464 234.12C144.43 232.095 148.484 230.382 152.626 228.765C153.101 231.725 153.578 234.633 153.861 237.623C154.052 239.64 154.858 241.464 156.156 243.004C158.245 245.481 160.236 248.05 162.615 250.275C163.563 251.161 163.564 252.245 162.653 253.188C162.215 253.642 161.73 254.054 161.248 254.466C160.729 254.908 160.547 255.499 160.444 256.135Z" fill="#FDD8BD"/>
<path d="M142.886 300.163C142.77 299.784 142.699 299.384 142.53 299.029C140.678 295.146 138.749 291.304 136.227 287.795C135.114 286.245 134.014 284.692 132.619 283.366C130.541 281.39 128.497 279.379 126.448 277.368C126.367 277.289 126.344 277.058 126.4 276.953C126.454 276.854 126.673 276.749 126.772 276.785C127.469 277.029 127.403 276.78 128.123 276.623C131.956 278.51 136.307 281.063 140.217 282.727C142.373 283.676 144.637 284.527 146.611 285.097C146.902 285.182 147.169 285.348 147.447 285.476C146.96 287.755 147.054 288.278 147.067 290.589C147.078 292.344 147.139 294.099 147.194 295.854C147.225 296.82 147.196 297.769 146.68 298.631C146.197 298.854 145.685 299.028 145.239 299.309C144.51 299.77 143.779 300.173 142.886 300.163Z" fill="#DD9B71"/>
<path d="M364.928 590.321C365.378 590.177 365.831 590.04 366.277 589.887C368.62 589.083 369.809 587.339 370.164 584.982C370.292 584.132 370.254 583.253 370.24 582.388C370.229 581.76 370.131 581.133 370.072 580.505C376.15 580.438 382.161 580.972 388.056 582.541C389.754 582.991 391.398 583.588 392.912 584.5C394.224 585.287 395.36 586.267 396.254 587.523C396.975 588.539 397.102 589.56 396.378 590.622C386.424 590.639 376.469 590.658 366.515 590.672C365.963 590.673 365.391 590.738 364.928 590.321Z" fill="#493A65"/>
<path d="M533.096 512.089C529.904 510.923 527.016 509.281 524.694 506.746C523.406 505.336 522.12 503.924 520.833 502.515C521.002 501.178 521.157 499.842 521.348 498.511C521.428 497.963 521.773 497.666 522.31 497.633C522.863 497.599 523.42 497.598 523.974 497.598C526.834 497.599 529.691 497.594 532.551 497.615C533.434 497.621 533.656 497.863 533.653 498.772C533.645 500.201 533.62 501.63 533.565 503.059C533.46 505.754 533.333 508.45 533.209 511.144C533.193 511.461 533.134 511.774 533.096 512.089Z" fill="#FDD8BD"/>
<path d="M562.289 499.557C561.767 499.652 561.514 500.028 561.273 500.462C559.953 502.831 558.375 504.993 556.389 506.87C552.955 510.117 549.001 512.249 544.308 513.073C542.648 513.365 541.006 513.513 539.347 513.437C538.246 513.386 537.155 513.158 536.059 513.009C536.135 509.19 536.198 505.371 536.291 501.552C536.317 500.44 536.413 499.328 536.496 498.218C536.54 497.647 536.825 497.392 537.427 497.35C537.824 497.324 538.221 497.323 538.619 497.323C545.787 497.321 552.954 497.324 560.122 497.321C562.091 497.321 561.831 497.349 562.297 499.084C562.335 499.231 562.293 499.398 562.289 499.557Z" fill="#FDD8BD"/>
<path d="M278.492 514.916C276.681 514.709 275.047 515.4 273.471 516.083C271.509 516.933 270.199 518.49 269.463 520.537C269.064 521.648 268.537 522.712 268.034 523.783C267.906 524.056 267.652 524.27 267.455 524.512C267.146 523.436 267.051 522.335 266.962 521.219C266.764 518.688 266.465 516.165 266.205 513.637C266.172 513.322 266.114 513.009 266.088 512.693C265.889 510.317 265.715 507.941 265.49 505.568C265.355 504.146 265.146 502.73 264.969 501.31C265.506 501.207 266.042 501.028 266.58 501.017C268.101 500.99 269.601 500.847 271.111 500.661C273.404 500.381 275.723 500.305 278.03 500.143C278.509 504.181 278.475 508.239 278.538 512.293C278.551 513.168 278.509 514.042 278.492 514.916Z" fill="#DD9B71"/>
<path d="M360.495 477.353C360.203 477.546 359.922 477.548 359.681 477.274C358.703 476.167 357.735 475.051 356.755 473.946C356.344 473.481 354.086 472.793 353.441 472.631C352.956 470.35 353.373 467.516 353.331 465.206C353.296 463.208 352.999 460.814 352.923 458.818C352.788 455.308 353.472 452.667 353.242 449.162C353.144 447.656 353.703 446.413 353.811 444.882L353.789 444.903C354.085 445.452 355.336 445.974 355.53 446.558C357.318 451.913 359.092 457.148 360.011 462.718C360.578 466.159 360.839 469.901 360.927 473.408C360.961 474.752 360.343 476.012 360.495 477.353Z" fill="#060316"/>
<path d="M364.928 590.322C364.531 590.307 364.105 590.195 363.741 590.299C362.174 590.75 360.575 590.657 358.982 590.661C356.027 590.667 353.071 590.668 350.115 590.657C348.523 590.651 346.927 590.736 345.353 590.336C344.907 590.222 344.402 590.34 343.925 590.35C343.351 589.089 343.224 587.766 343.238 586.385C343.287 582.071 343.232 577.755 343.292 573.443C343.326 571.096 342.929 568.844 342.223 566.623C342.008 565.946 341.918 565.229 341.771 564.532C344.224 563.926 346.691 563.368 349.126 562.699C352.026 561.9 354.782 560.71 357.515 559.467C357.591 561.447 357.62 563.409 357.304 565.393C357.033 567.099 357.066 568.869 357.386 570.607C357.514 571.304 357.577 572.019 357.604 572.728C357.694 575.17 358.795 576.946 360.994 578.043C363.503 579.293 366.099 580.193 368.944 580.227C369.321 580.231 369.697 580.409 370.072 580.505C370.131 581.133 370.229 581.761 370.24 582.389C370.254 583.254 370.291 584.133 370.163 584.982C369.808 587.339 368.618 589.085 366.276 589.888C365.829 590.041 365.378 590.178 364.928 590.322Z" fill="#FDD8BD"/>
<path d="M341.634 593.027C341.422 592.928 341.206 592.837 341 592.727C340.356 592.383 340.093 591.985 340.19 591.488C340.291 590.968 340.64 590.676 341.14 590.588C341.598 590.507 342.064 590.465 342.53 590.427C342.993 590.387 343.461 590.375 343.924 590.35C344.402 590.338 344.906 590.222 345.352 590.336C346.926 590.738 348.523 590.653 350.116 590.656C353.072 590.668 356.027 590.666 358.982 590.659C360.576 590.655 362.173 590.751 363.74 590.3C364.103 590.196 364.53 590.308 364.927 590.323C365.39 590.739 365.962 590.673 366.514 590.672C376.468 590.658 386.423 590.641 396.378 590.624C396.667 591.444 396.798 592.269 396.447 593.108C394.134 593.134 391.82 593.193 389.506 593.182C373.785 593.113 358.065 593.032 342.344 592.956C342.107 592.956 341.871 593.002 341.634 593.027Z" fill="#A55B73"/>
<path d="M278.492 514.916C279.022 515.425 278.91 516.089 278.916 516.716C278.952 519.906 278.956 523.098 279.013 526.288C279.03 527.237 279.197 528.183 279.274 529.13C279.334 529.845 279.39 530.559 279.399 531.275C279.435 534.067 279.444 536.857 279.477 539.647C279.496 541.237 279.411 542.83 279.809 544.403C279.962 545.008 279.881 545.673 279.886 546.31C279.912 549.023 279.928 551.735 279.957 554.445C279.973 555.877 279.91 557.309 280.276 558.725C280.432 559.327 280.356 559.993 280.363 560.632C280.391 563.583 280.407 566.531 280.439 569.483C280.453 570.834 280.394 572.185 280.746 573.523C280.904 574.125 280.835 574.792 280.842 575.428C280.869 578.141 280.88 580.853 280.915 583.563C280.936 585.233 280.955 586.889 281.222 588.56C281.459 590.036 281.275 591.581 281.276 593.093C279.102 593.092 276.93 593.091 274.757 593.089C274.055 592.177 273.753 591.155 273.645 589.997C273.443 587.865 273.08 585.747 272.81 583.621C272.739 583.068 272.788 582.504 272.738 581.948C272.644 580.921 272.519 579.896 272.404 578.87C272.386 578.713 272.337 578.559 272.326 578.402C272.137 576.022 271.957 573.643 271.763 571.266C271.705 570.554 271.616 569.844 271.54 569.133C271.465 568.422 271.389 567.712 271.309 567.001C271.192 565.976 271.065 564.953 270.958 563.927C270.9 563.372 270.86 562.816 270.839 562.258C270.789 560.985 270.814 559.713 270.457 558.462C270.309 557.939 270.395 557.354 270.342 556.8C270.251 555.851 270.134 554.904 270.024 553.958C270.005 553.8 269.939 553.645 269.941 553.49C269.97 551.333 269.617 549.208 269.402 547.072C269.107 544.148 268.992 541.207 268.525 538.299C268.436 537.751 268.478 537.186 268.424 536.631C268.331 535.682 268.212 534.738 268.101 533.792C268.081 533.635 268.016 533.478 268.021 533.322C268.115 530.367 267.267 527.472 267.455 524.512C267.652 524.27 267.906 524.058 268.034 523.784C268.537 522.714 269.064 521.65 269.463 520.538C270.199 518.492 271.509 516.934 273.471 516.085C275.047 515.402 276.681 514.709 278.492 514.916Z" fill="#FDD8BD"/>
<path d="M98.5895 310.09C98.3657 309.516 98.1419 308.942 97.9194 308.37C98.0569 308.276 98.193 308.18 98.3278 308.085C98.4141 308.753 98.5018 309.421 98.5895 310.09Z" fill="#FDD8BD"/>
<path d="M149.874 526.404C149.614 526.256 149.224 526.167 149.118 525.945C148.848 525.385 148.698 524.766 148.516 524.165C148.379 523.715 148.255 523.261 148.148 522.804C147.33 519.307 145.004 517.297 141.691 516.278C141.096 516.095 140.475 516.009 139.866 515.878C139.692 513.86 140.303 511.931 140.557 509.964C140.771 508.31 141.13 506.675 141.426 505.031C142.214 505.014 143.015 504.896 143.787 504.997C146.613 505.362 149.454 505.301 152.289 505.413C152.99 505.441 153.719 505.345 154.355 505.768C154.185 506.702 154.04 507.639 153.845 508.567C153.328 511.046 152.808 513.524 152.256 515.994C151.479 519.468 150.668 522.936 149.874 526.404Z" fill="#DD9B71"/>
<path d="M523.611 494.75C525.185 493.76 526.997 493.399 528.741 492.889C532.332 491.839 535.943 490.855 539.559 489.888C542.556 489.085 545.579 488.368 548.578 487.569C552.809 486.439 557.137 485.781 561.41 484.85C562.398 484.634 563.472 484.808 564.508 484.805C564.468 485.899 564.42 486.991 564.388 488.086C564.347 489.57 564.403 491.051 563.989 492.514C563.78 493.252 563.845 494.07 563.786 494.852C551.349 494.846 538.913 494.843 526.476 494.832C525.52 494.831 524.565 494.778 523.611 494.75Z" fill="#FDD8BD"/>
<path d="M135.016 593.104C132.605 593.109 130.194 593.116 127.784 593.122C127.867 590.728 128.298 588.382 128.702 586.026C129.121 583.596 129.438 581.148 129.803 578.71C130.002 577.371 130.205 576.035 130.418 574.699C130.681 573.051 130.959 571.405 131.226 569.756C131.672 567.01 132.123 564.264 132.554 561.515C132.923 559.158 133.254 556.794 133.623 554.436C134.053 551.686 134.516 548.942 134.942 546.192C135.321 543.755 135.656 541.312 136.037 538.875C136.454 536.204 136.911 533.541 137.334 530.869C137.707 528.512 138.062 526.154 138.415 523.793C138.777 521.355 139.12 518.914 139.496 516.476C139.528 516.263 139.738 516.077 139.865 515.878C140.473 516.009 141.097 516.095 141.692 516.278C145.005 517.297 147.331 519.307 148.149 522.804C148.256 523.261 148.379 523.715 148.515 524.165C148.697 524.766 148.846 525.385 149.116 525.946C149.222 526.167 149.612 526.256 149.873 526.404C149.753 526.946 149.633 527.486 149.517 528.028C148.451 532.932 147.399 537.839 146.321 542.74C145.326 547.251 144.292 551.754 143.297 556.267C142.131 561.557 140.993 566.852 139.84 572.143C139.365 574.322 138.88 576.5 138.4 578.679C137.339 583.503 136.361 588.345 135.016 593.104Z" fill="#FDD8BD"/>
<path d="M523.611 494.751C521.62 494.806 519.632 494.86 517.643 494.915C516.838 491.901 516.358 488.856 516.656 485.722C516.678 485.477 516.416 485.153 516.202 484.96C516.047 484.819 515.756 484.818 515.52 484.782C514.739 484.663 514.464 484.624 514.457 483.523C514.443 480.971 514.453 478.419 514.457 475.869C514.457 475.71 514.48 475.552 514.504 475.395C514.575 474.947 514.849 474.676 515.288 474.645C515.923 474.6 516.562 474.591 517.199 474.59C521.345 474.586 525.491 474.596 529.636 474.581C530.51 474.578 531.383 474.493 532.256 474.443L532.468 474.493L532.68 474.446C535.744 474.493 538.809 474.549 541.874 474.579C542.5 474.586 543.124 474.493 543.751 474.445L544.625 474.449C545.459 474.449 546.295 474.447 547.131 474.447L547.346 474.485L547.56 474.446C548.429 474.493 549.298 474.578 550.167 474.581C554.77 474.595 559.373 474.586 563.976 474.59C564.609 474.59 565.245 474.587 565.878 474.637C566.307 474.67 566.6 474.932 566.66 475.386C566.692 475.621 566.718 475.858 566.718 476.095C566.72 478.555 566.732 481.015 566.711 483.475C566.702 484.514 566.524 484.67 565.46 484.775C565.143 484.805 564.825 484.797 564.507 484.805C563.472 484.809 562.398 484.634 561.41 484.85C557.136 485.781 552.808 486.441 548.577 487.57C545.579 488.37 542.557 489.085 539.56 489.888C535.944 490.855 532.332 491.839 528.741 492.889C526.996 493.399 525.185 493.762 523.611 494.751Z" fill="#DD9B71"/>
<path d="M248.329 271.517C247.564 272.913 246.792 274.304 246.037 275.704C244.578 278.408 243.976 281.366 243.464 284.355C242.861 287.89 242.077 291.363 240.457 294.619C238.539 298.48 236.392 302.199 234.139 305.872C230.933 311.101 227.602 316.249 224.289 321.409C220.759 326.904 217.241 332.405 213.63 337.849C210.682 342.296 207.83 346.808 204.963 351.308C203.509 353.591 201.805 357.499 200.37 359.794C200.162 360.128 199.875 360.415 199.602 360.703C199.319 360.997 199.004 360.956 198.585 360.602C198.404 360.45 198.23 360.289 198.052 360.131L198.068 360.149C197.922 359.983 197.775 359.815 197.627 359.648C195.759 357.785 194.604 354.019 193.029 351.924C190.782 348.934 188.647 345.86 186.465 342.823C186.778 342.596 187.157 342.421 187.389 342.129C188.931 340.188 190.599 338.369 192.348 336.613C201.699 327.219 211.049 317.82 220.374 308.4C224.923 303.805 229.419 299.157 233.937 294.53C234.272 294.189 234.598 293.837 234.929 293.491C235.847 292.527 236.231 291.397 236.362 290.05C236.685 286.726 236.799 283.377 237.656 280.109C238.874 275.463 241.255 271.623 245.122 268.739C246.265 267.886 247.305 266.865 248.732 266.457C248.683 267.001 248.666 267.552 248.58 268.09C248.444 268.944 248.232 269.789 248.118 270.644C248.081 270.921 248.253 271.226 248.329 271.517Z" fill="#DD9B71"/>
<path d="M533.547 593.091C532.497 593.473 531.445 593.516 530.384 593.139C530.386 592.66 530.385 592.181 530.391 591.702C530.503 583.643 530.615 575.584 530.722 567.523C530.732 566.806 530.724 566.088 530.682 565.372C530.661 565.02 530.393 564.826 530.047 564.788C529.732 564.755 529.412 564.741 529.094 564.741C523.667 564.738 518.24 564.737 512.812 564.741C512.496 564.741 512.149 564.705 511.869 564.817C511.614 564.918 511.285 565.169 511.241 565.403C511.001 566.654 510.835 567.921 510.648 569.184C509.918 574.155 509.181 579.124 508.464 584.094C508.03 587.094 507.629 590.098 507.214 593.099C506.228 593.426 505.243 593.549 504.259 593.092C504.472 591.43 504.675 589.766 504.9 588.107C505.625 582.811 506.359 577.515 507.087 572.22C507.793 567.082 508.5 561.947 509.203 556.807C509.918 551.589 510.624 546.373 511.339 541.156C512.076 535.78 512.816 530.406 513.558 525.032C514.277 519.816 515.011 514.602 515.719 509.384C516.374 504.563 517.002 499.737 517.643 494.915C519.631 494.86 521.62 494.806 523.61 494.751C524.565 494.78 525.519 494.832 526.476 494.833C538.913 494.844 551.349 494.847 563.786 494.85C563.951 495.377 564.199 495.892 564.275 496.431C565.301 503.697 566.293 510.968 567.315 518.234C568.349 525.578 569.417 532.92 570.452 540.265C571.333 546.505 572.177 552.749 573.055 558.989C573.932 565.228 574.843 571.463 575.719 577.704C576.439 582.837 577.132 587.975 577.836 593.112C576.854 593.469 575.88 593.602 574.933 593.007C574.958 592.876 574.917 592.767 574.815 592.681C573.862 586.534 572.916 580.383 571.956 574.236C571.512 571.398 571.043 568.565 570.577 565.73C570.478 565.128 570.219 564.899 569.623 564.876C568.986 564.848 568.347 564.855 567.709 564.855C557.329 564.853 546.951 564.855 536.573 564.855C536.014 564.855 535.454 564.847 534.895 564.868C533.992 564.9 533.811 565.092 533.767 566.029C533.748 566.426 533.75 566.826 533.747 567.225C533.68 575.847 533.613 584.47 533.547 593.091ZM520.832 502.513C520.601 503.93 520.359 505.346 520.141 506.765C518.765 515.763 517.386 524.759 516.021 533.757C514.742 542.202 513.473 550.648 512.209 559.096C512.115 559.726 512.082 560.367 512.056 561.003C512.042 561.359 512.258 561.614 512.619 561.64C513.253 561.689 513.893 561.712 514.531 561.714C519.245 561.719 523.959 561.726 528.673 561.712C531.591 561.705 531.381 561.999 531.508 559.028C531.678 555.038 531.775 551.044 531.916 547.052C532.187 539.468 532.466 531.884 532.747 524.3C532.83 522.064 532.954 519.83 533.022 517.595C533.076 515.76 533.073 513.924 533.095 512.089C533.134 511.774 533.193 511.46 533.208 511.144C533.332 508.45 533.46 505.754 533.565 503.058C533.62 501.63 533.644 500.201 533.651 498.771C533.655 497.863 533.433 497.621 532.549 497.614C529.691 497.594 526.833 497.599 523.975 497.597C523.42 497.597 522.862 497.599 522.309 497.633C521.772 497.666 521.427 497.963 521.348 498.511C521.156 499.841 521.001 501.178 520.832 502.513ZM536.058 513.009C535.926 514.839 535.74 516.667 535.676 518.498C535.43 525.526 535.223 532.555 534.998 539.583C534.973 540.381 534.918 541.178 534.888 541.977C534.662 547.965 534.43 553.953 534.214 559.942C534.129 562.261 534.127 562.242 536.354 562.241C547.062 562.237 557.77 562.241 568.477 562.237C568.956 562.237 569.435 562.215 569.91 562.169C570.269 562.133 570.475 561.901 570.488 561.536C570.495 561.298 570.483 561.058 570.45 560.821C569.512 553.696 568.58 546.57 567.628 539.446C566.739 532.797 565.823 526.153 564.932 519.504C564.043 512.856 563.169 506.205 562.288 499.557C562.292 499.398 562.334 499.231 562.296 499.083C561.83 497.348 562.09 497.321 560.121 497.321C552.953 497.324 545.786 497.321 538.618 497.323C538.22 497.323 537.822 497.324 537.426 497.35C536.824 497.391 536.539 497.647 536.495 498.217C536.412 499.328 536.316 500.44 536.29 501.552C536.197 505.371 536.134 509.19 536.058 513.009Z" fill="#6F3C41"/>
<path d="M98.5899 310.09C99.7207 313.663 100.833 317.242 101.986 320.808C106.773 335.61 111.543 350.417 116.382 365.203C119.633 375.138 123.002 385.032 126.776 394.783C129.687 402.306 132.85 409.716 136.639 416.845C137.238 417.97 137.872 419.085 138.58 420.144C139.908 422.129 141.714 423.566 143.994 424.285C145.664 424.812 147.377 425.223 149.094 425.563C150.5 425.842 151.935 426.024 153.366 426.105C157.907 426.362 162.45 426.726 167.004 426.528C169.632 426.414 172.255 426.205 174.88 426.04C177.487 425.926 180.093 425.813 182.698 425.697C183.57 425.658 184.442 425.627 185.309 425.553C188.149 425.311 190.988 425.057 193.825 424.793C195.953 424.594 198.079 424.372 200.205 424.162C200.601 424.176 201.002 424.239 201.394 424.2C203.764 423.964 206.13 423.697 208.5 423.455C210.238 423.278 211.977 423.119 213.718 422.964C216.25 422.738 218.783 422.524 221.311 422.306C223.034 422.175 224.793 422.493 226.491 421.911C226.778 421.813 227.12 421.873 227.436 421.871C229.891 421.861 232.348 421.823 234.803 421.853C238.259 421.896 241.546 422.625 244.528 424.461C244.947 424.718 245.387 424.864 245.882 424.745L245.868 424.734C245.879 425.049 246.054 425.203 246.358 425.232L246.344 425.215C246.436 426.262 247.101 426.816 248.015 427.155C248.143 427.21 248.219 427.308 248.24 427.447C248.249 427.906 248.278 428.356 248.774 428.585C248.774 428.585 248.756 428.555 248.757 428.555C248.79 428.847 248.927 429.042 249.242 429.064L249.231 429.047C249.062 429.912 249.571 430.576 249.905 431.289C250.785 433.167 251.78 434.999 252.53 436.928C254.323 441.539 255.679 446.282 256.484 451.175C256.688 452.42 256.993 453.648 257.252 454.883C257.329 454.969 257.419 455.039 257.523 455.088C257.507 455.374 257.491 455.66 257.476 455.948C257.354 456.744 257.299 457.531 257.768 458.252C257.877 459.444 257.986 460.637 258.097 461.83C258.201 462.943 258.873 463.538 259.906 463.794C260.292 463.892 260.679 464.002 261.072 464.047C262.343 464.192 263.615 464.407 264.888 464.425C270.403 464.497 275.905 465.014 281.427 464.808C282.292 464.776 283.162 464.904 284.031 464.956C284.633 465.446 285.363 465.45 286.079 465.475C288.011 465.543 289.867 466.026 291.707 466.552C293.183 466.973 294.514 467.697 295.538 468.888C296.388 469.878 296.869 471.048 297.222 472.29C298.685 477.425 298.935 482.669 298.545 487.948C298.41 489.769 297.984 491.569 297.384 493.314C296.688 495.34 295.4 496.677 293.293 497.315C290.689 498.099 288.058 498.714 285.369 499.097C282.924 499.447 280.477 499.795 278.031 500.143C275.723 500.305 273.406 500.38 271.113 500.661C269.601 500.847 268.101 500.99 266.582 501.017C266.043 501.028 265.507 501.207 264.969 501.31C261.234 501.526 257.501 501.737 253.767 501.963C252.179 502.062 250.596 502.213 249.008 502.3C248.137 502.347 247.261 502.309 246.387 502.309C246.31 501.041 246.344 499.779 245.995 498.516C245.748 497.618 245.896 496.612 245.874 495.655C245.845 494.382 245.855 493.127 245.531 491.859C245.278 490.878 245.418 489.795 245.393 488.76C245.366 487.565 245.372 486.389 245.057 485.201C244.815 484.298 244.939 483.3 244.916 482.342C244.887 481.228 244.965 480.113 244.569 479.025C244.412 478.593 244.456 478.079 244.443 477.603C244.404 476.011 244.53 474.415 244.017 472.856C243.873 472.42 243.963 471.906 243.955 471.425C243.941 470.47 244.014 469.505 243.628 468.589C243.566 468.445 243.519 468.277 243.532 468.125C243.706 466.113 243.023 464.184 242.966 462.191C242.929 460.928 242.737 459.656 242.483 458.415C241.844 455.304 241.7 452.11 240.798 449.042C240.306 447.368 240.075 445.613 239.538 443.955C238.529 440.843 237.32 437.816 235.485 435.061C234.537 433.64 233.316 432.498 232.065 431.399C231.026 430.486 229.665 430.101 228.297 430.05C226.143 429.97 223.984 430.029 221.828 430.037C221.51 430.038 221.165 430.022 220.879 430.136C219.724 430.594 218.52 430.47 217.328 430.499C216.135 430.527 214.943 430.438 213.772 430.849C213.267 431.029 212.667 430.957 212.11 430.971C210.678 431.01 209.246 430.903 207.838 431.357C207.252 431.546 206.57 431.441 205.932 431.455C204.897 431.481 203.85 431.377 202.858 431.797C202.714 431.857 202.544 431.896 202.39 431.886C199.747 431.709 197.165 432.391 194.537 432.417C193.421 432.429 192.328 432.467 191.22 432.754C190.314 432.988 189.317 432.871 188.36 432.896C187.246 432.925 186.148 432.916 185.04 433.221C184.215 433.448 183.299 433.346 182.422 433.374C180.992 433.42 179.576 433.373 178.147 433.727C177.087 433.989 175.923 433.832 174.807 433.857C173.535 433.886 172.261 433.786 171.011 434.217C170.505 434.392 169.906 434.319 169.347 434.324C167.75 434.338 166.152 434.329 164.554 434.345C163.361 434.357 162.172 434.297 160.997 434.685C160.413 434.879 159.731 434.8 159.094 434.802C155.419 434.812 151.744 434.82 148.071 434.806C146.56 434.8 145.037 434.95 143.561 434.426C143.2 434.299 142.77 434.346 142.371 434.345C138.789 434.341 135.45 433.383 132.29 431.752C130.274 430.712 128.62 429.302 127.344 427.367C125.174 424.079 123.541 420.544 122.147 416.888C121.211 414.431 120.35 411.943 119.522 409.449C118.591 406.652 117.697 403.842 116.853 401.019C115.53 396.594 114.054 392.219 112.885 387.746C112.061 384.591 111.016 381.492 110.103 378.359C108.79 373.85 107.514 369.331 106.212 364.82C105.484 362.296 104.724 359.782 103.995 357.259C102.959 353.664 101.947 350.064 100.908 346.47C100.421 344.787 99.9222 343.106 99.383 341.44C97.2014 334.69 95.0812 327.92 92.7779 321.213C91.5633 317.676 90.0819 314.224 88.6004 310.787C87.1411 307.407 85.1964 304.283 82.8917 301.418C79.7769 297.547 75.7551 295.11 70.8068 294.301C70.4953 294.25 70.1694 294.276 69.8501 294.268C69.2245 292.986 69.3607 291.616 69.4706 290.274C69.5753 289.014 70.2375 287.983 71.3408 287.367C72.2359 286.868 73.1966 286.415 74.1846 286.166C80.3894 284.599 86.1831 286.481 90.3148 292.197C91.6694 294.072 92.8354 296.077 93.7385 298.212C94.9477 301.071 96.085 303.964 97.2563 306.84C97.4671 307.356 97.6987 307.862 97.9199 308.371C98.1424 308.943 98.3662 309.516 98.5899 310.09Z" fill="#488B49"/>
<path d="M141.427 505.032C139.07 504.633 136.707 504.289 134.444 503.449C131.221 502.253 128.472 500.392 126.363 497.68C124.94 495.849 123.752 493.848 122.828 491.717C120.791 487.027 119.183 482.183 117.75 477.277C114.796 467.171 112.152 456.983 109.52 446.791C107.008 437.063 104.431 427.352 101.877 417.635C99.4668 408.458 97.0561 399.28 94.6349 390.106C92.4376 381.778 90.2389 373.452 88.0167 365.132C85.2395 354.732 82.4087 344.344 79.6565 333.937C76.7602 322.991 73.9229 312.029 71.0764 301.071C70.6563 299.452 70.299 297.815 69.9692 296.174C69.8462 295.555 69.8841 294.904 69.8501 294.268C70.1694 294.276 70.494 294.249 70.8068 294.3C75.7538 295.109 79.7755 297.545 82.8903 301.418C85.195 304.281 87.1411 307.407 88.599 310.787C90.0818 314.224 91.562 317.675 92.7765 321.21C95.0812 327.919 97.2014 334.69 99.383 341.44C99.9209 343.106 100.421 344.786 100.908 346.469C101.947 350.062 102.958 353.664 103.995 357.258C104.723 359.782 105.483 362.296 106.212 364.82C107.514 369.331 108.79 373.85 110.103 378.357C111.015 381.492 112.061 384.591 112.885 387.746C114.054 392.219 115.53 396.594 116.855 401.018C117.699 403.842 118.591 406.652 119.521 409.449C120.35 411.943 121.211 414.43 122.147 416.888C123.541 420.544 125.174 424.079 127.343 427.367C128.619 429.302 130.274 430.712 132.29 431.752C135.45 433.383 138.788 434.341 142.371 434.345C142.769 434.346 143.199 434.299 143.559 434.426C145.037 434.95 146.559 434.799 148.069 434.806C151.744 434.82 155.419 434.812 159.094 434.802C159.731 434.799 160.412 434.878 160.997 434.684C162.172 434.295 163.361 434.357 164.553 434.345C166.151 434.329 167.749 434.338 169.347 434.324C169.904 434.319 170.504 434.392 171.01 434.217C172.261 433.786 173.533 433.886 174.805 433.857C175.923 433.832 177.087 433.989 178.145 433.727C179.574 433.373 180.991 433.42 182.421 433.374C183.298 433.346 184.215 433.448 185.04 433.221C186.147 432.916 187.245 432.925 188.359 432.896C189.317 432.871 190.314 432.988 191.218 432.753C192.328 432.467 193.421 432.429 194.537 432.417C197.164 432.391 199.747 431.708 202.39 431.884C202.544 431.895 202.714 431.856 202.857 431.796C203.85 431.375 204.897 431.481 205.932 431.455C206.57 431.441 207.252 431.546 207.837 431.357C209.246 430.902 210.678 431.009 212.108 430.971C212.667 430.955 213.265 431.029 213.772 430.849C214.942 430.437 216.134 430.526 217.328 430.497C218.52 430.468 219.724 430.594 220.88 430.135C221.163 430.022 221.509 430.037 221.827 430.035C223.984 430.026 226.143 429.97 228.297 430.05C229.665 430.101 231.026 430.485 232.065 431.399C233.316 432.498 234.537 433.638 235.485 435.059C237.32 437.814 238.528 440.843 239.537 443.955C240.075 445.613 240.305 447.367 240.798 449.042C241.7 452.11 241.844 455.304 242.481 458.415C242.737 459.656 242.929 460.928 242.966 462.191C243.023 464.184 243.705 466.113 243.531 468.125C243.518 468.276 243.566 468.445 243.627 468.589C244.014 469.505 243.941 470.47 243.955 471.425C243.963 471.906 243.873 472.42 244.017 472.856C244.53 474.413 244.404 476.011 244.443 477.603C244.455 478.079 244.411 478.593 244.569 479.025C244.965 480.113 244.887 481.228 244.914 482.341C244.938 483.299 244.815 484.298 245.056 485.201C245.372 486.389 245.365 487.565 245.393 488.758C245.418 489.795 245.278 490.878 245.53 491.859C245.855 493.127 245.845 494.382 245.874 495.655C245.895 496.612 245.748 497.618 245.994 498.516C246.344 499.779 246.308 501.041 246.387 502.31C244.163 502.493 241.945 502.738 239.719 502.842C236.532 502.989 233.347 503.004 230.162 503.305C226.993 503.605 223.795 503.48 220.606 503.751C216.641 504.085 212.638 503.912 208.659 504.276C206.358 504.487 204.03 504.371 201.713 504.42C200.997 504.434 200.281 504.494 199.565 504.548C198.613 504.62 197.663 504.755 196.71 504.776C193.836 504.84 190.96 504.86 188.085 504.9C187.447 504.909 186.79 504.841 186.173 504.969C184.434 505.332 182.678 505.254 180.924 505.276C176.771 505.327 172.619 505.357 168.467 505.396C167.907 505.401 167.335 505.337 166.792 505.433C164.175 505.887 161.536 505.678 158.907 505.73C157.39 505.76 155.873 505.757 154.355 505.768C153.719 505.345 152.99 505.441 152.289 505.413C149.454 505.301 146.611 505.362 143.786 504.997C143.014 504.896 142.214 505.014 141.427 505.032Z" fill="#C5E063"/>
<path d="M200.204 424.162C201.895 421.038 203.604 417.902 205.333 414.755C207.028 411.669 208.723 408.604 210.419 405.561L210.415 405.618C220.254 395.538 231.739 396.006 245.024 394.442C264.755 391.98 284.509 389.616 304.327 387.99C322.118 386.283 331.937 385.978 341.8 402.654C356.031 421.677 370.022 440.918 384.184 460.005C387.934 464.976 391.45 470.134 395.378 474.966C396.505 476.242 398.518 475.168 399.884 476.066C404.436 480.032 390.23 488.974 388.021 492.899C384.854 496.229 376.636 506.628 374.948 496.866C372.245 489.588 363.411 484.107 360.494 477.354C359.446 466.386 358.544 454.786 353.649 444.801C353.703 444.828 353.758 444.854 353.812 444.882C355.418 471.83 355.802 498.912 357.786 525.929C359.448 532.822 355.849 548.892 362.813 551.6C367.167 558.84 334.787 570.531 333.507 561.105C331.74 535.701 323.141 510.794 317.774 485.829C316.81 481.342 317.832 471.614 311.525 466.653C306.079 462.369 298.241 463.425 293.364 464.597C287.091 464.956 260.011 470.35 246.387 464.437C228.958 456.872 217.633 431.726 200.204 424.162Z" fill="#493A65"/>
<path d="M181.055 365.123C177.653 359.091 171.812 349.985 167.369 351.06C166.587 351.249 166.085 351.692 165.859 351.904C156.266 360.89 148.025 369.323 137.955 378.937C131.023 386.028 158.323 402.442 167.949 415.345C170.371 418.593 174.54 421.925 177.214 424.735C177.24 425.701 175.273 426.563 174.785 427.155C163.146 427.099 146.656 430.16 137.895 420.83C127.951 403.692 122.726 383.878 116.381 365.204C110.408 346.847 104.407 328.498 98.5886 310.091C98.4041 302.663 107.695 297.722 112.023 292.216C122.709 297.17 135.399 303.953 147.066 297.621C169.111 313.015 187.351 339.761 199.649 361.81C199.649 361.81 192.129 372.789 190.896 374.32C190.895 374.321 188.077 373.378 188.077 373.378L187.604 372.427C187.613 372.416 187.973 372.865 181.055 365.123Z" fill="#FB963D"/>
<path d="M200.687 358.213C201.658 356.368 209.2 344.715 224.289 321.408C235.52 304.056 237.44 300.984 240.458 294.619C244.005 287.138 243.286 278.409 248.329 271.517C249.581 270.86 250.972 271.619 252.167 270.799C255.884 271.77 254.051 281.095 254.479 284.457C253.365 291.665 247.35 290.294 245.482 301.979C234.806 336.891 222.459 371.221 210.416 405.617L210.42 405.561C209.737 405.918 210.097 406.735 209.564 407.207C208.804 406.91 208.333 407.288 208.021 407.922C204.783 413.434 201.243 419.86 195.082 422.422C176.191 424.868 159.056 396.409 147.334 384.018C143.652 379.862 141.009 376.796 146.865 372.984C154.881 365.825 162.423 358.088 169.17 349.756C174.373 353.219 177.873 358.828 181.626 363.343L181.608 363.316C185.106 368.523 189.393 374.245 191.111 373.46C191.488 373.287 191.621 372.855 191.671 372.701C193.416 367.287 198.041 363.248 200.687 358.213Z" fill="#FDD8BD"/>
<path d="M293.364 464.595C292.743 464.664 292.126 464.776 291.505 464.793C289.774 464.844 288.754 465.45 287.028 465.478C286.372 465.231 286.189 465.303 285.539 465.59L284.979 465.531C284.979 465.531 284.034 465.706 284.032 465.706C283.162 465.654 283.201 465.725 282.335 465.756C276.815 465.961 277.754 466.908 272.239 466.834C270.966 466.816 266.216 467.235 264.946 467.09C264.552 467.045 261.635 467.014 261.25 466.917C260.217 466.659 258.555 467.884 258.453 466.772C258.342 465.579 253.332 467.546 253.222 466.355C253.362 465.558 247.64 465.403 247.159 464.684C247.174 464.396 257.507 455.374 257.523 455.088C259.737 453.682 261.946 452.263 264.168 450.869C271.05 446.553 278.033 442.412 285.096 438.402C292.784 434.037 300.49 429.711 308.442 425.838C309.8 425.177 311.185 424.563 312.581 423.985C313 423.811 313.5 423.831 313.963 423.761L313.997 423.795C313.987 424.412 313.555 424.794 313.204 425.22C310.928 427.987 308.606 430.718 306.382 433.526C300.3 441.2 296.086 449.763 294.242 459.428C293.915 461.144 293.655 462.873 293.364 464.595Z" fill="#060316"/>
<path d="M169.17 349.756C162.423 358.088 155.967 365.987 147.951 373.146C142.13 376.991 143.6 379.811 147.336 384.016C159.068 396.415 176.159 424.846 195.08 422.425C201.247 419.863 204.778 413.433 208.022 407.923C208.333 407.288 208.804 406.911 209.564 407.207C206.47 412.874 203.088 418.388 200.205 424.162C191.782 425.053 183.349 425.799 174.88 426.04C176.834 425.052 177.313 424.388 175.044 423.217C161.183 412.098 148.472 399.482 137.65 385.371C133.322 378.601 144.618 373.884 147.66 368.682C151.967 365.786 165.407 345.956 169.17 349.756Z" fill="#ECAB55"/>
<path d="M4.59766 593.104C5.79644 593.114 6.99394 593.133 8.19145 593.133C47.0164 593.134 85.8413 593.134 124.666 593.134C125.705 593.134 126.743 593.127 127.782 593.122C130.193 593.116 132.605 593.109 135.016 593.104C135.814 593.114 136.614 593.134 137.412 593.134C182.316 593.135 227.219 593.135 272.123 593.133C273.001 593.133 273.88 593.104 274.757 593.088C276.93 593.09 279.104 593.092 281.276 593.093C281.915 593.108 282.553 593.133 283.192 593.133C301.715 593.135 320.24 593.137 338.762 593.131C339.72 593.131 340.677 593.063 341.634 593.025C341.871 593.002 342.107 592.956 342.344 592.956C358.065 593.031 373.785 593.113 389.506 593.182C391.82 593.192 394.134 593.133 396.449 593.107C397.407 593.117 398.363 593.134 399.323 593.134C433.343 593.135 467.364 593.135 501.385 593.133C502.344 593.133 503.3 593.107 504.26 593.092C505.244 593.549 506.228 593.426 507.214 593.099C514.938 593.113 522.661 593.126 530.383 593.139C531.445 593.515 532.498 593.473 533.547 593.091C533.945 593.105 534.342 593.131 534.74 593.131C547.387 593.134 560.033 593.135 572.679 593.131C573.314 593.131 573.949 593.067 574.583 593.033L574.76 593.035L574.934 593.006C575.88 593.603 576.854 593.469 577.836 593.112C578.715 593.12 579.595 593.133 580.474 593.133C611.881 593.134 643.289 593.134 674.698 593.133C675.496 593.133 676.296 593.114 677.094 593.104V598.378C452.93 598.379 228.763 598.379 4.59766 598.378V593.104Z" fill="#DAF3B9"/>
</g>
<defs>
<radialGradient id="paint0_radial_118_6697" cx="0" cy="0" r="1" gradientUnits="userSpaceOnUse" gradientTransform="translate(376.819 173.183) rotate(-9.6482) scale(336.765)">
<stop stop-color="#B0E696"/>
<stop offset="0.5" stop-color="#B0E696"/>
<stop offset="1" stop-color="#B0E696"/>
</radialGradient>
<clipPath id="clip0_118_6697">
<rect width="683" height="683" fill="white"/>
</clipPath>
</defs>
</svg>
