<svg width="43" height="43" viewBox="0 0 43 43" fill="none" xmlns="http://www.w3.org/2000/svg">
<path d="M34.9375 40.3125H18.8125C18.0997 40.3125 17.4162 40.0294 16.9122 39.5253C16.4081 39.0213 16.125 38.3378 16.125 37.625V33.5938H18.8125V37.625H34.9375V5.375H18.8125V9.40625H16.125V5.375C16.125 4.66223 16.4081 3.97865 16.9122 3.47465C17.4162 2.97065 18.0997 2.6875 18.8125 2.6875H34.9375C35.6503 2.6875 36.3338 2.97065 36.8378 3.47465C37.3419 3.97865 37.625 4.66223 37.625 5.375V37.625C37.625 38.3378 37.3419 39.0213 36.8378 39.5253C36.3338 40.0294 35.6503 40.3125 34.9375 40.3125Z" fill="#676767"/>
<path d="M19.6053 27.6678L24.4159 22.8438H5.375V20.1562H24.4159L19.6053 15.3322L21.5 13.4375L29.5625 21.5L21.5 29.5625L19.6053 27.6678Z" fill="#676767"/>
</svg>
