<svg width="46" height="46" viewBox="0 0 46 46" fill="none" xmlns="http://www.w3.org/2000/svg">
<path d="M23 25C22.0111 25 21.0444 24.7068 20.2222 24.1574C19.3999 23.6079 18.759 22.8271 18.3806 21.9134C18.0022 20.9998 17.9031 19.9945 18.0961 19.0246C18.289 18.0546 18.7652 17.1637 19.4645 16.4645C20.1637 15.7652 21.0546 15.289 22.0246 15.0961C22.9945 14.9031 23.9998 15.0022 24.9134 15.3806C25.8271 15.759 26.6079 16.3999 27.1574 17.2222C27.7068 18.0444 28 19.0111 28 20C27.9984 21.3256 27.4711 22.5964 26.5338 23.5338C25.5964 24.4711 24.3256 24.9984 23 25ZM23 17C22.4067 17 21.8266 17.1759 21.3333 17.5056C20.8399 17.8352 20.4554 18.3038 20.2284 18.852C20.0013 19.4001 19.9419 20.0033 20.0576 20.5853C20.1734 21.1672 20.4591 21.7018 20.8787 22.1213C21.2982 22.5409 21.8328 22.8266 22.4147 22.9424C22.9967 23.0581 23.5999 22.9987 24.1481 22.7716C24.6962 22.5446 25.1648 22.1601 25.4944 21.6667C25.8241 21.1734 26 20.5933 26 20C25.9992 19.2046 25.6829 18.442 25.1204 17.8796C24.558 17.3171 23.7954 17.0008 23 17Z" fill="#3D3D3D"/>
<path d="M23 37L14.564 27.051C14.4468 26.9016 14.3308 26.7513 14.216 26.6C12.775 24.7018 11.9965 22.3832 12 20C12 17.0826 13.1589 14.2847 15.2218 12.2218C17.2847 10.1589 20.0826 9 23 9C25.9174 9 28.7153 10.1589 30.7782 12.2218C32.8411 14.2847 34 17.0826 34 20C34.0035 22.3821 33.2254 24.6996 31.785 26.597L31.784 26.6C31.784 26.6 31.484 26.994 31.439 27.047L23 37ZM15.812 25.395C15.814 25.395 16.046 25.703 16.099 25.769L23 33.908L29.91 25.758C29.954 25.703 30.188 25.393 30.189 25.392C31.3662 23.8411 32.0023 21.947 32 20C32 17.6131 31.0518 15.3239 29.364 13.636C27.6761 11.9482 25.387 11 23 11C20.6131 11 18.3239 11.9482 16.6361 13.636C14.9482 15.3239 14 17.6131 14 20C13.9979 21.9482 14.6348 23.8434 15.813 25.395H15.812Z" fill="#3D3D3D"/>
</svg>
