<svg width="55" height="55" viewBox="0 0 55 55" fill="none" xmlns="http://www.w3.org/2000/svg">
<path d="M23 31.625C24.1909 31.625 25.1562 30.6596 25.1562 29.4688C25.1562 28.2779 24.1909 27.3125 23 27.3125C21.8091 27.3125 20.8438 28.2779 20.8438 29.4688C20.8438 30.6596 21.8091 31.625 23 31.625Z" fill="#3D3D3D"/>
<path d="M21.5625 10.0625H24.4375V23H21.5625V10.0625Z" fill="#3D3D3D"/>
<path d="M23 43.125L10.8733 28.8233C10.7048 28.6086 10.538 28.3925 10.373 28.175C8.30155 25.4463 7.1825 22.1134 7.18752 18.6875C7.18752 14.4938 8.85347 10.4718 11.8189 7.50637C14.7843 4.54096 18.8063 2.875 23 2.875C27.1938 2.875 31.2157 4.54096 34.1811 7.50637C37.1466 10.4718 38.8125 14.4938 38.8125 18.6875C38.8175 22.1118 37.699 25.4432 35.6285 28.1707L35.627 28.175C35.627 28.175 35.1958 28.7414 35.1311 28.8176L23 43.125ZM12.6673 26.4428C12.6701 26.4428 13.0036 26.8856 13.0798 26.9804L23 38.6803L32.9331 26.9646C32.9964 26.8856 33.3328 26.4399 33.3342 26.4385C35.0264 24.2091 35.9408 21.4864 35.9375 18.6875C35.9375 15.2563 34.5745 11.9656 32.1482 9.53931C29.722 7.11305 26.4313 5.75 23 5.75C19.5688 5.75 16.2781 7.11305 13.8518 9.53931C11.4256 11.9656 10.0625 15.2563 10.0625 18.6875C10.0595 21.4881 10.975 24.2124 12.6687 26.4428H12.6673Z" fill="#3D3D3D"/>
</svg>
