<svg width="46" height="46" viewBox="0 0 46 46" fill="none" xmlns="http://www.w3.org/2000/svg">
<path d="M38.8125 12.9375H34.5V8.625C34.5 7.8625 34.1971 7.13123 33.6579 6.59207C33.1188 6.0529 32.3875 5.75 31.625 5.75H14.375C13.6125 5.75 12.8812 6.0529 12.3421 6.59207C11.8029 7.13123 11.5 7.8625 11.5 8.625V12.9375H7.1875C6.04375 12.9375 4.94685 13.3919 4.1381 14.2006C3.32935 15.0094 2.875 16.1063 2.875 17.25V37.375C2.875 38.1375 3.1779 38.8688 3.71707 39.4079C4.25623 39.9471 4.9875 40.25 5.75 40.25H40.25C41.0125 40.25 41.7438 39.9471 42.2829 39.4079C42.8221 38.8688 43.125 38.1375 43.125 37.375V17.25C43.125 16.1063 42.6707 15.0094 41.8619 14.2006C41.0531 13.3919 39.9562 12.9375 38.8125 12.9375ZM14.375 8.625H31.625V12.9375H14.375V8.625ZM40.25 37.375H5.75V24.4375H17.25V31.625H28.75V24.4375H40.25V37.375ZM20.125 24.4375H25.875V28.75H20.125V24.4375ZM5.75 21.5625V17.25C5.75 16.8688 5.90145 16.5031 6.17103 16.2335C6.44062 15.964 6.80625 15.8125 7.1875 15.8125H38.8125C39.1937 15.8125 39.5594 15.964 39.829 16.2335C40.0985 16.5031 40.25 16.8688 40.25 17.25V21.5625H5.75Z" fill="#3D3D3D"/>
</svg>
