<svg width="72" height="71" viewBox="0 0 72 71" fill="none" xmlns="http://www.w3.org/2000/svg">
<path d="M58.4015 9.40479H13.6606C11.4674 9.40479 9.71289 11.1593 9.71289 13.1332V58.0934C9.71289 60.0673 11.4674 61.8218 13.6606 61.8218H58.4015C60.5947 61.8218 62.3493 60.0673 62.3493 58.0934V13.1332C62.3493 11.1593 60.5947 9.40479 58.4015 9.40479ZM25.2845 54.1457H17.6083V29.1434H25.2845V54.1457ZM21.5561 25.6343C19.1436 25.6343 16.9504 23.6605 16.9504 21.0286C16.9504 18.3968 18.9243 16.423 21.5561 16.423C23.9686 16.423 26.1618 18.3968 26.1618 21.0286C26.1618 23.6605 23.9686 25.6343 21.5561 25.6343ZM54.6731 53.9264H46.997V41.6446C46.997 38.7934 46.997 34.8457 42.8299 34.8457C38.6629 34.8457 38.2243 38.1355 38.2243 41.2059V53.7071H30.5481V29.1434H37.7856V32.4332H38.0049C39.1015 30.4593 41.7333 28.2661 45.4618 28.2661C53.3572 28.2661 54.8924 33.5298 54.8924 40.3286V53.9264H54.6731Z" fill="#3D3D3D"/>
</svg>
