<svg width="53" height="53" viewBox="0 0 53 53" fill="none" xmlns="http://www.w3.org/2000/svg">
<path d="M36.0715 13.25C34.3526 13.3147 32.6505 13.6122 31.0116 14.1344C30.0214 14.4268 29.0134 14.6553 27.9939 14.8185C27.5832 12.5236 26.3794 10.446 24.5927 8.94845C22.806 7.45087 20.55 6.62852 18.2188 6.625V9.9375C19.6533 9.94235 21.0473 10.4135 22.1906 11.2799C23.3339 12.1463 24.1646 13.3609 24.5572 14.7406C23.6566 14.576 22.7631 14.3743 21.8791 14.1361C20.1685 13.6217 18.4002 13.324 16.6155 13.25C10.4509 13.25 6.625 18.3264 6.625 26.5C6.625 38.9384 13.3626 46.3733 19.875 46.375H19.8783C21.3005 46.2996 22.6975 45.9686 24.0024 45.3978C24.7943 45.0423 25.6371 44.8131 26.5 44.7188C27.3645 44.813 28.209 45.0421 29.0026 45.3978C30.3068 45.9687 31.7033 46.2997 33.125 46.375C39.6341 46.3733 46.375 38.9384 46.375 26.5C46.375 20.3884 43.6753 13.25 36.0715 13.25ZM33.125 43.0625C32.1005 42.9754 31.0981 42.7155 30.1603 42.294C29.0028 41.7825 27.7632 41.4819 26.5 41.4062C25.239 41.4822 24.0016 41.7829 22.8463 42.294C21.9061 42.7153 20.9016 42.9752 19.875 43.0625H19.8783C14.9924 43.0608 9.9375 36.8665 9.9375 26.5C9.9375 23.5121 10.5884 16.5625 16.6155 16.5625C18.1214 16.6428 19.6119 16.9059 21.0542 17.3459C22.6973 17.8373 24.3932 18.1303 26.1058 18.2188H26.919C28.6045 18.1384 30.2724 17.84 31.8812 17.331C33.2383 16.8927 34.6471 16.6344 36.0715 16.5625C42.7246 16.5625 43.0625 24.8404 43.0625 26.5C43.0625 36.8665 38.0076 43.0608 33.125 43.0625Z" fill="#3D3D3D"/>
<path d="M29.8125 11.5938H28.1562V9.9375C28.1571 9.05924 28.5064 8.2172 29.1274 7.59618C29.7485 6.97515 30.5905 6.62588 31.4688 6.625H33.125V8.28125C33.1241 9.15951 32.7748 10.0015 32.1538 10.6226C31.5328 11.2436 30.6908 11.5929 29.8125 11.5938Z" fill="#3D3D3D"/>
</svg>
