<svg width="32" height="32" viewBox="0 0 32 32" fill="none" xmlns="http://www.w3.org/2000/svg">
<path d="M16 23C15.7033 23 15.4133 23.088 15.1666 23.2528C14.92 23.4176 14.7277 23.6519 14.6142 23.926C14.5006 24.2001 14.4709 24.5017 14.5288 24.7926C14.5867 25.0836 14.7296 25.3509 14.9393 25.5607C15.1491 25.7704 15.4164 25.9133 15.7074 25.9712C15.9983 26.0291 16.2999 25.9993 16.574 25.8858C16.8481 25.7723 17.0824 25.58 17.2472 25.3334C17.412 25.0867 17.5 24.7967 17.5 24.5C17.5 24.1022 17.342 23.7206 17.0607 23.4393C16.7794 23.158 16.3978 23 16 23ZM15 12H17V21H15V12Z" fill="#E1A917"/>
<path d="M29 30H3.00003C2.82829 29.9999 2.65947 29.9556 2.50983 29.8713C2.36018 29.7871 2.23475 29.6657 2.14563 29.5189C2.05651 29.3721 2.00669 29.2049 2.00098 29.0332C1.99527 28.8616 2.03386 28.6914 2.11303 28.539L15.113 3.53896C15.1975 3.3767 15.3249 3.24072 15.4813 3.14581C15.6377 3.05091 15.8171 3.00073 16 3.00073C16.183 3.00073 16.3624 3.05091 16.5188 3.14581C16.6752 3.24072 16.8026 3.3767 16.887 3.53896L29.887 28.539C29.9662 28.6914 30.0048 28.8616 29.9991 29.0332C29.9934 29.2049 29.9435 29.3721 29.8544 29.5189C29.7653 29.6657 29.6399 29.7871 29.4902 29.8713C29.3406 29.9556 29.1718 29.9999 29 30ZM4.65003 28H27.35L27.351 27.997L16.002 6.16996H15.998L4.64803 27.997L4.65003 28Z" fill="#E1A917"/>
</svg>
