<svg width="96" height="96" viewBox="0 0 96 96" fill="none" xmlns="http://www.w3.org/2000/svg">
<path d="M57 42C58.78 42 60.5201 41.4722 62.0001 40.4832C63.4802 39.4943 64.6337 38.0887 65.3149 36.4442C65.9961 34.7996 66.1743 32.99 65.8271 31.2442C65.4798 29.4984 64.6226 27.8947 63.364 26.636C62.1053 25.3774 60.5016 24.5202 58.7558 24.1729C57.01 23.8257 55.2004 24.0039 53.5558 24.6851C51.9113 25.3663 50.5057 26.5198 49.5168 27.9999C48.5278 29.4799 48 31.22 48 33C48 35.3869 48.9482 37.6761 50.636 39.364C52.3239 41.0518 54.6131 42 57 42ZM57 30C57.5933 30 58.1734 30.1759 58.6667 30.5056C59.1601 30.8352 59.5446 31.3038 59.7716 31.8519C59.9987 32.4001 60.0581 33.0033 59.9424 33.5853C59.8266 34.1672 59.5409 34.7018 59.1213 35.1213C58.7018 35.5409 58.1672 35.8266 57.5853 35.9424C57.0033 36.0581 56.4001 35.9987 55.852 35.7716C55.3038 35.5446 54.8352 35.1601 54.5056 34.6667C54.1759 34.1734 54 33.5933 54 33C54 32.2044 54.3161 31.4413 54.8787 30.8787C55.4413 30.3161 56.2044 30 57 30Z" fill="#676767"/>
<path d="M78 12H18C16.4087 12 14.8826 12.6321 13.7574 13.7574C12.6321 14.8826 12 16.4087 12 18V78C12 79.5913 12.6321 81.1174 13.7574 82.2426C14.8826 83.3679 16.4087 84 18 84H78C79.5913 84 81.1174 83.3679 82.2426 82.2426C83.3679 81.1174 84 79.5913 84 78V18C84 16.4087 83.3679 14.8826 82.2426 13.7574C81.1174 12.6321 79.5913 12 78 12ZM78 78H18V60L33 45L49.77 61.77C50.8942 62.8875 52.4149 63.5148 54 63.5148C55.5851 63.5148 57.1058 62.8875 58.23 61.77L63 57L78 72V78ZM78 63.51L67.23 52.74C66.1058 51.6225 64.5851 50.9952 63 50.9952C61.4149 50.9952 59.8942 51.6225 58.77 52.74L54 57.51L37.23 40.74C36.1058 39.6225 34.5851 38.9952 33 38.9952C31.4149 38.9952 29.8942 39.6225 28.77 40.74L18 51.51V18H78V63.51Z" fill="#676767"/>
</svg>
