<svg width="27" height="27" viewBox="0 0 27 27" fill="none" xmlns="http://www.w3.org/2000/svg">
<path d="M13.5 3.375C19.0688 3.375 23.625 7.93125 23.625 13.5C23.625 19.0688 19.0688 23.625 13.5 23.625C7.93125 23.625 3.375 19.0688 3.375 13.5C3.375 7.93125 7.93125 3.375 13.5 3.375ZM13.5 1.6875C7.00313 1.6875 1.6875 7.00313 1.6875 13.5C1.6875 19.9969 7.00313 25.3125 13.5 25.3125C19.9969 25.3125 25.3125 19.9969 25.3125 13.5C25.3125 7.00313 19.9969 1.6875 13.5 1.6875Z" fill="#3D3D3D"/>
<path d="M20.25 12.6562H14.3438V6.75H12.6562V12.6562H6.75V14.3438H12.6562V20.25H14.3438V14.3438H20.25V12.6562Z" fill="#3D3D3D"/>
</svg>
