<svg width="23" height="23" viewBox="0 0 23 23" fill="none" xmlns="http://www.w3.org/2000/svg">
<rect width="23" height="23" fill="white"/>
<path d="M20.8437 19.8274L15.4157 14.3994C16.7201 12.8335 17.3705 10.825 17.2317 8.79169C17.0929 6.75839 16.1756 4.85688 14.6705 3.48272C13.1655 2.10856 11.1885 1.36755 9.15104 1.41385C7.11354 1.46015 5.17232 2.29018 3.73122 3.73128C2.29012 5.17239 1.46008 7.1136 1.41379 9.1511C1.36749 11.1886 2.1085 13.1655 3.48266 14.6706C4.85682 16.1757 6.75833 17.093 8.79163 17.2318C10.8249 17.3706 12.8335 16.7201 14.3994 15.4158L19.8274 20.8438L20.8437 19.8274ZM2.87495 9.34376C2.87495 8.06436 3.25433 6.81369 3.96513 5.74991C4.67592 4.68613 5.6862 3.85702 6.86821 3.36741C8.05022 2.87781 9.35087 2.7497 10.6057 2.9993C11.8605 3.2489 13.0131 3.86499 13.9178 4.76966C14.8225 5.67433 15.4386 6.82695 15.6882 8.08177C15.9377 9.33658 15.8096 10.6372 15.32 11.8192C14.8304 13.0012 14.0013 14.0115 12.9375 14.7223C11.8738 15.4331 10.6231 15.8125 9.3437 15.8125C7.62866 15.8106 5.98441 15.1285 4.7717 13.9158C3.55899 12.703 2.87685 11.0588 2.87495 9.34376Z" fill="#676767"/>
</svg>
