<svg width="132" height="132" viewBox="0 0 132 132" fill="none" xmlns="http://www.w3.org/2000/svg">
<path d="M82.381 86.563H49.4813C47.2999 86.563 45.2078 85.6964 43.6654 84.1539C42.1229 82.6115 41.2563 80.5194 41.2563 78.338V70.1131C41.2563 67.9317 42.1229 65.8397 43.6654 64.2972C45.2078 62.7547 47.2999 61.8882 49.4813 61.8882H82.381C84.5624 61.8882 86.6544 62.7547 88.1969 64.2972C89.7394 65.8397 90.6059 67.9317 90.6059 70.1131V78.338C90.6059 80.5194 89.7394 82.6115 88.1969 84.1539C86.6544 85.6964 84.5624 86.563 82.381 86.563ZM49.4813 70.1131V78.338H82.381V70.1131H49.4813Z" fill="#3D3D3D"/>
<path d="M115.281 16.651H16.5819C14.4005 16.651 12.3084 17.5176 10.766 19.06C9.22349 20.6025 8.35693 22.6945 8.35693 24.8759V41.3258C8.35693 43.5072 9.22349 45.5992 10.766 47.1417C12.3084 48.6842 14.4005 49.5507 16.5819 49.5507V115.35C16.5819 117.532 17.4484 119.624 18.9909 121.166C20.5334 122.709 22.6254 123.575 24.8068 123.575H107.056C109.237 123.575 111.33 122.709 112.872 121.166C114.414 119.624 115.281 117.532 115.281 115.35V49.5507C117.462 49.5507 119.554 48.6842 121.097 47.1417C122.639 45.5992 123.506 43.5072 123.506 41.3258V24.8759C123.506 22.6945 122.639 20.6025 121.097 19.06C119.554 17.5176 117.462 16.651 115.281 16.651V16.651ZM107.056 115.35H24.8068V49.5507H107.056V115.35ZM115.281 41.3258H16.5819V24.8759H115.281V41.3258Z" fill="#3D3D3D"/>
</svg>
