<svg width="32" height="32" viewBox="0 0 32 32" fill="none" xmlns="http://www.w3.org/2000/svg">
<path d="M16 22C16.8284 22 17.5 21.3284 17.5 20.5C17.5 19.6716 16.8284 19 16 19C15.1716 19 14.5 19.6716 14.5 20.5C14.5 21.3284 15.1716 22 16 22Z" fill="#3D3D3D"/>
<path d="M15 7H17V16H15V7Z" fill="#3D3D3D"/>
<path d="M16 30L7.56401 20.051C7.44679 19.9016 7.33079 19.7513 7.21601 19.6C5.77499 17.7018 4.99652 15.3832 5.00001 13C5.00001 10.0826 6.15894 7.28473 8.22184 5.22183C10.2847 3.15893 13.0826 2 16 2C18.9174 2 21.7153 3.15893 23.7782 5.22183C25.8411 7.28473 27 10.0826 27 13C27.0035 15.3821 26.2254 17.6996 24.785 19.597L24.784 19.6C24.784 19.6 24.484 19.994 24.439 20.047L16 30ZM8.81201 18.395C8.81401 18.395 9.04601 18.703 9.09901 18.769L16 26.908L22.91 18.758C22.954 18.703 23.188 18.393 23.189 18.392C24.3662 16.8411 25.0023 14.947 25 13C25 10.6131 24.0518 8.32387 22.364 6.63604C20.6761 4.94821 18.387 4 16 4C13.6131 4 11.3239 4.94821 9.63605 6.63604C7.94822 8.32387 7.00001 10.6131 7.00001 13C6.99791 14.9482 7.63479 16.8434 8.81301 18.395H8.81201Z" fill="#3D3D3D"/>
</svg>
