<svg width="32" height="32" viewBox="0 0 32 32" fill="none" xmlns="http://www.w3.org/2000/svg">
<path d="M27 9H24V6C24 5.46957 23.7893 4.96086 23.4142 4.58579C23.0391 4.21071 22.5304 4 22 4H10C9.46957 4 8.96086 4.21071 8.58579 4.58579C8.21071 4.96086 8 5.46957 8 6V9H5C4.20435 9 3.44129 9.31607 2.87868 9.87868C2.31607 10.4413 2 11.2044 2 12V26C2 26.5304 2.21071 27.0391 2.58579 27.4142C2.96086 27.7893 3.46957 28 4 28H28C28.5304 28 29.0391 27.7893 29.4142 27.4142C29.7893 27.0391 30 26.5304 30 26V12C30 11.2044 29.6839 10.4413 29.1213 9.87868C28.5587 9.31607 27.7956 9 27 9ZM10 6H22V9H10V6ZM28 26H4V17H12V22H20V17H28V26ZM14 17H18V20H14V17ZM4 15V12C4 11.7348 4.10536 11.4804 4.29289 11.2929C4.48043 11.1054 4.73478 11 5 11H27C27.2652 11 27.5196 11.1054 27.7071 11.2929C27.8946 11.4804 28 11.7348 28 12V15H4Z" fill="#3D3D3D"/>
</svg>
