<svg width="50" height="50" viewBox="0 0 119 119" fill="none" xmlns="http://www.w3.org/2000/svg">
<path d="M59.5 7.4375C49.203 7.4375 39.1373 10.4909 30.5756 16.2116C22.014 21.9323 15.341 30.0634 11.4005 39.5765C7.46006 49.0897 6.42905 59.5578 8.43789 69.6569C10.4467 79.756 15.4052 89.0327 22.6863 96.3137C29.9673 103.595 39.244 108.553 49.3431 110.562C59.4423 112.571 69.9103 111.54 79.4235 107.599C88.9367 103.659 97.0677 96.986 102.788 88.4244C108.509 79.8627 111.563 69.797 111.563 59.5C111.563 45.6922 106.077 32.4499 96.3138 22.6863C86.5502 12.9226 73.3079 7.4375 59.5 7.4375ZM52.0625 80.2878L33.4688 61.6941L39.3816 55.7812L52.0625 68.4622L79.6185 40.9062L85.5536 46.8042L52.0625 80.2878Z" fill="#58AE30"/>
</svg>
