<svg width="39" height="39" viewBox="0 0 39 39" fill="none" xmlns="http://www.w3.org/2000/svg">
<path d="M34.125 7.3125H4.875C4.22853 7.3125 3.60855 7.56931 3.15143 8.02643C2.69431 8.48355 2.4375 9.10353 2.4375 9.75V29.25C2.4375 29.8965 2.69431 30.5165 3.15143 30.9736C3.60855 31.4307 4.22853 31.6875 4.875 31.6875H34.125C34.7715 31.6875 35.3915 31.4307 35.8486 30.9736C36.3057 30.5165 36.5625 29.8965 36.5625 29.25V9.75C36.5625 9.10353 36.3057 8.48355 35.8486 8.02643C35.3915 7.56931 34.7715 7.3125 34.125 7.3125ZM31.4437 9.75L19.5 18.0131L7.55625 9.75H31.4437ZM4.875 29.25V10.8591L18.8053 20.4994C19.0093 20.6409 19.2517 20.7167 19.5 20.7167C19.7483 20.7167 19.9907 20.6409 20.1947 20.4994L34.125 10.8591V29.25H4.875Z" fill="white"/>
</svg>
