<svg width="34" height="32" viewBox="0 0 34 32" fill="none" xmlns="http://www.w3.org/2000/svg">
<path d="M10.5979 18H19.0763V20H10.5979V18ZM10.5979 13H23.3155V15H10.5979V13ZM10.5979 23H15.8969V25H10.5979V23Z" fill="#676767"/>
<path d="M26.4951 5H23.3157V4C23.3157 3.46957 23.0924 2.96086 22.6949 2.58579C22.2974 2.21071 21.7582 2 21.1961 2H12.7177C12.1555 2 11.6164 2.21071 11.2189 2.58579C10.8214 2.96086 10.5981 3.46957 10.5981 4V5H7.41867C6.85652 5 6.31739 5.21071 5.91989 5.58579C5.52239 5.96086 5.29907 6.46957 5.29907 7V28C5.29907 28.5304 5.52239 29.0391 5.91989 29.4142C6.31739 29.7893 6.85652 30 7.41867 30H26.4951C27.0572 30 27.5964 29.7893 27.9939 29.4142C28.3914 29.0391 28.6147 28.5304 28.6147 28V7C28.6147 6.46957 28.3914 5.96086 27.9939 5.58579C27.5964 5.21071 27.0572 5 26.4951 5ZM12.7177 4H21.1961V8H12.7177V4ZM26.4951 28H7.41867V7H10.5981V10H23.3157V7H26.4951V28Z" fill="#676767"/>
</svg>
