<svg width="71" height="71" viewBox="0 0 71 71" fill="none" xmlns="http://www.w3.org/2000/svg">
<path fill-rule="evenodd" clip-rule="evenodd" d="M35.4432 5.01825C28.1536 5.01923 21.1022 7.61362 15.5503 12.3373C9.99843 17.061 6.30819 23.6059 5.13976 30.8012C3.97132 37.9964 5.4009 45.3727 9.17277 51.6105C12.9446 57.8483 18.8127 62.5407 25.7274 64.8483C27.2626 65.1334 27.9205 64.1903 27.9205 63.3788V58.159C19.3891 60.0013 17.5907 54.0359 17.5907 54.0359C16.9907 52.1559 15.728 50.5581 14.0377 49.5398C11.2524 47.6537 14.257 47.6756 14.257 47.6756C15.2299 47.8131 16.1586 48.171 16.972 48.7222C17.7854 49.2733 18.4621 50.0031 18.9504 50.8557C19.7999 52.3794 21.2198 53.5034 22.8978 53.9804C24.5758 54.4575 26.3746 54.2487 27.8986 53.3998C28.0224 51.8437 28.7085 50.3859 29.8286 49.2986C23.0297 48.509 15.858 45.8772 15.858 34.1218C15.8083 31.0686 16.9398 28.1143 19.0162 25.8754C18.0764 23.2309 18.1863 20.3266 19.3233 17.7606C19.3233 17.7606 21.8893 16.9272 27.767 20.8969C32.7926 19.526 38.0937 19.526 43.1193 20.8969C48.9751 16.9272 51.5411 17.7606 51.5411 17.7606C52.6781 20.3266 52.788 23.2309 51.8482 25.8754C53.9246 28.1143 55.0561 31.0686 55.0063 34.1218C55.0063 45.9211 47.8346 48.509 40.9919 49.2767C41.7249 50.0196 42.2902 50.9111 42.6496 51.8909C43.009 52.8708 43.1542 53.9163 43.0754 54.957V63.3788C43.0754 64.3877 43.6237 65.1553 45.2686 64.8483C52.1923 62.5378 58.0665 57.8364 61.8378 51.5871C65.6091 45.3378 67.0308 37.9494 65.8479 30.7469C64.6651 23.5443 60.9551 16.9987 55.3833 12.2838C49.8114 7.56883 42.7422 4.99303 35.4432 5.01825Z" fill="#3D3D3D"/>
</svg>
