<svg width="52" height="51" viewBox="0 0 52 51" fill="none" xmlns="http://www.w3.org/2000/svg">
<path d="M26.0193 3.13647C21.677 3.13647 17.4322 4.42412 13.8217 6.83657C10.2112 9.24903 7.39718 12.6779 5.73545 16.6897C4.07372 20.7015 3.63894 25.1159 4.48608 29.3748C5.33322 33.6336 7.42424 37.5457 10.4947 40.6161C13.5652 43.6866 17.4772 45.7776 21.7361 46.6248C25.9949 47.4719 30.4094 47.0371 34.4211 45.3754C38.4329 43.7137 41.8618 40.8996 44.2743 37.2891C46.6867 33.6786 47.9744 29.4339 47.9744 25.0916C47.9744 19.2687 45.6613 13.6843 41.5439 9.56697C37.4265 5.44959 31.8421 3.13647 26.0193 3.13647V3.13647ZM22.8829 33.8579L15.0418 26.0168L17.5352 23.5233L22.8829 28.871L34.5034 17.2505L37.0062 19.7377L22.8829 33.8579Z" fill="#58AE30"/>
<path d="M22.8828 33.8594L15.0417 26.0183L17.5368 23.5232L22.8828 28.8693L34.5034 17.2504L37.0047 19.736L22.8828 33.8594Z" fill="white"/>
</svg>
