<svg width="39" height="39" viewBox="0 0 39 39" fill="none" xmlns="http://www.w3.org/2000/svg">
<path d="M19.5 17.0625H21.9375V19.5H19.5V17.0625ZM24.375 17.0625H26.8125V19.5H24.375V17.0625ZM29.25 17.0625H31.6875V19.5H29.25V17.0625ZM19.5 21.9375H21.9375V24.375H19.5V21.9375ZM24.375 21.9375H26.8125V24.375H24.375V21.9375ZM29.25 21.9375H31.6875V24.375H29.25V21.9375ZM19.5 26.8125H21.9375V29.25H19.5V26.8125ZM24.375 26.8125H26.8125V29.25H24.375V26.8125ZM29.25 26.8125H31.6875V29.25H29.25V26.8125ZM19.5 12.1875H31.6875V14.625H19.5V12.1875Z" fill="white"/>
<path d="M34.125 7.3125H17.0625V6.09375C17.0619 5.44748 16.8048 4.82787 16.3479 4.37089C15.8909 3.91391 15.2713 3.6569 14.625 3.65625H9.75C9.10373 3.6569 8.48412 3.91391 8.02714 4.37089C7.57016 4.82787 7.31315 5.44748 7.3125 6.09375V7.3125H4.875C4.22873 7.31315 3.60912 7.57016 3.15214 8.02714C2.69516 8.48412 2.43815 9.10373 2.4375 9.75V31.6875C2.43815 32.3338 2.69516 32.9534 3.15214 33.4104C3.60912 33.8673 4.22873 34.1244 4.875 34.125H34.125C34.7713 34.1244 35.3909 33.8673 35.8479 33.4104C36.3048 32.9534 36.5619 32.3338 36.5625 31.6875V9.75C36.5619 9.10373 36.3048 8.48412 35.8479 8.02714C35.3909 7.57016 34.7713 7.31315 34.125 7.3125ZM9.75 6.09375H14.625V26.8125H9.75V6.09375ZM34.125 31.6875H4.875V9.75H7.3125V26.8125C7.31315 27.4588 7.57016 28.0784 8.02714 28.5354C8.48412 28.9923 9.10373 29.2494 9.75 29.25H14.625C15.2713 29.2494 15.8909 28.9923 16.3479 28.5354C16.8048 28.0784 17.0619 27.4588 17.0625 26.8125V9.75H34.125V31.6875Z" fill="white"/>
</svg>
