<svg width="43" height="43" viewBox="0 0 43 43" fill="none" xmlns="http://www.w3.org/2000/svg">
<path d="M8.0625 40.3125H24.1875C24.9001 40.3118 25.5832 40.0284 26.0871 39.5246C26.5909 39.0207 26.8743 38.3376 26.875 37.625V33.5938H24.1875V37.625H8.0625V5.375H24.1875V9.40625H26.875V5.375C26.8743 4.66245 26.5909 3.97929 26.0871 3.47544C25.5832 2.97159 24.9001 2.68821 24.1875 2.6875H8.0625C7.34995 2.68821 6.66679 2.97159 6.16294 3.47544C5.65909 3.97929 5.37571 4.66245 5.375 5.375V37.625C5.37571 38.3376 5.65909 39.0207 6.16294 39.5246C6.66679 40.0284 7.34995 40.3118 8.0625 40.3125Z" fill="#C92A2A"/>
<path d="M27.6624 27.6624L32.4811 22.8438H13.4375V20.1562H32.4811L27.6624 15.3376L29.5625 13.4375L37.625 21.5L29.5625 29.5625L27.6624 27.6624Z" fill="#C92A2A"/>
</svg>
