<svg width="39" height="39" viewBox="0 0 39 39" fill="none" xmlns="http://www.w3.org/2000/svg">
<path d="M31.6874 35.3438H31.4802C7.53177 33.9666 4.13145 13.7597 3.65614 7.59281C3.61784 7.11333 3.67453 6.63101 3.82296 6.17347C3.97138 5.71593 4.20863 5.29218 4.52111 4.92649C4.83358 4.56081 5.21515 4.26037 5.64393 4.0424C6.07272 3.82443 6.5403 3.6932 7.01989 3.65625H13.7352C14.2234 3.65578 14.7005 3.8019 15.1046 4.0757C15.5088 4.34949 15.8215 4.73834 16.0021 5.19188L17.8546 9.75C18.0329 10.1931 18.0772 10.6788 17.9819 11.1468C17.8865 11.6148 17.6558 12.0445 17.3183 12.3825L14.7224 15.0028C15.1279 17.3072 16.2314 19.4313 17.8837 21.088C19.536 22.7446 21.6572 23.8537 23.9605 24.2653L26.6052 21.645C26.9483 21.3113 27.382 21.0859 27.8523 20.997C28.3226 20.9082 28.8087 20.9597 29.2499 21.1453L33.8446 22.9856C34.2913 23.172 34.6724 23.487 34.9394 23.8908C35.2063 24.2945 35.3471 24.7685 35.3436 25.2525V31.6875C35.3436 32.6572 34.9584 33.5872 34.2727 34.2729C33.5871 34.9585 32.6571 35.3438 31.6874 35.3438ZM7.31239 6.09375C6.98916 6.09375 6.67916 6.22216 6.4506 6.45072C6.22204 6.67928 6.09364 6.98927 6.09364 7.3125V7.41C6.65426 14.625 10.2496 31.6875 31.6143 32.9062C31.7744 32.9161 31.9349 32.8943 32.0865 32.8421C32.2382 32.7898 32.378 32.7081 32.4981 32.6017C32.6181 32.4952 32.7159 32.3662 32.7859 32.2218C32.856 32.0775 32.8968 31.9208 32.9061 31.7606V25.2525L28.3114 23.4122L24.8136 26.8856L24.2286 26.8125C13.6255 25.4841 12.1874 14.8809 12.1874 14.7713L12.1143 14.1863L15.5755 10.6884L13.7474 6.09375H7.31239Z" fill="white"/>
</svg>
