<svg width="25" height="25" viewBox="0 0 25 25" fill="none" xmlns="http://www.w3.org/2000/svg">
<path d="M17.9688 15.625C17.384 15.6279 16.8074 15.7621 16.2814 16.0177C15.7554 16.2732 15.2935 16.6436 14.9298 17.1015L9.21882 13.5312C9.42695 12.8595 9.42695 12.1405 9.21882 11.4687L14.9298 7.89841C15.5094 8.61616 16.3244 9.10558 17.2303 9.27998C18.1363 9.45438 19.0747 9.3025 19.8794 8.85125C20.6841 8.39999 21.3031 7.67849 21.6267 6.81455C21.9504 5.9506 21.9578 4.99999 21.6477 4.1311C21.3376 3.2622 20.7299 2.53112 19.9324 2.06734C19.1348 1.60357 18.1989 1.43705 17.2903 1.59727C16.3818 1.75749 15.5593 2.23412 14.9685 2.94273C14.3777 3.65133 14.0568 4.54617 14.0626 5.46873C14.0663 5.81808 14.1188 6.16521 14.2188 6.49998L8.50788 10.0703C8.0037 9.43559 7.31455 8.97345 6.53597 8.74794C5.75738 8.52243 4.92793 8.54471 4.16258 8.81171C3.39723 9.0787 2.73389 9.57717 2.26451 10.238C1.79513 10.8989 1.54297 11.6894 1.54297 12.5C1.54297 13.3106 1.79513 14.1011 2.26451 14.7619C2.73389 15.4228 3.39723 15.9213 4.16258 16.1882C4.92793 16.4552 5.75738 16.4775 6.53597 16.252C7.31455 16.0265 8.0037 15.5644 8.50788 14.9297L14.2188 18.5C14.1188 18.8347 14.0663 19.1819 14.0626 19.5312C14.0626 20.3038 14.2917 21.059 14.7209 21.7014C15.1501 22.3438 15.7602 22.8445 16.474 23.1401C17.1877 23.4358 17.9732 23.5131 18.7309 23.3624C19.4886 23.2117 20.1847 22.8397 20.731 22.2934C21.2773 21.7471 21.6493 21.051 21.8 20.2933C21.9507 19.5356 21.8734 18.7501 21.5777 18.0364C21.2821 17.3226 20.7814 16.7125 20.139 16.2833C19.4966 15.8541 18.7414 15.625 17.9688 15.625ZM17.9688 3.12498C18.4324 3.12498 18.8855 3.26244 19.2709 3.51997C19.6564 3.7775 19.9568 4.14355 20.1342 4.57181C20.3116 5.00008 20.358 5.47133 20.2675 5.92597C20.1771 6.38061 19.9539 6.79823 19.6261 7.12601C19.2983 7.45379 18.8807 7.67701 18.4261 7.76744C17.9714 7.85788 17.5002 7.81146 17.0719 7.63407C16.6436 7.45668 16.2776 7.15627 16.0201 6.77084C15.7625 6.38542 15.6251 5.93228 15.6251 5.46873C15.6251 4.84713 15.872 4.25098 16.3115 3.81144C16.7511 3.37191 17.3472 3.12498 17.9688 3.12498ZM5.46882 14.8437C5.00527 14.8437 4.55213 14.7063 4.1667 14.4487C3.78127 14.1912 3.48087 13.8252 3.30347 13.3969C3.12608 12.9686 3.07967 12.4974 3.1701 12.0427C3.26054 11.5881 3.48376 11.1705 3.81154 10.8427C4.13931 10.5149 4.55693 10.2917 5.01157 10.2013C5.46622 10.1108 5.93747 10.1572 6.36573 10.3346C6.794 10.512 7.16004 10.8124 7.41757 11.1979C7.67511 11.5833 7.81257 12.0364 7.81257 12.5C7.81257 13.1216 7.56564 13.7177 7.1261 14.1573C6.68656 14.5968 6.09042 14.8437 5.46882 14.8437ZM17.9688 21.875C17.5053 21.875 17.0521 21.7375 16.6667 21.48C16.2813 21.2224 15.9809 20.8564 15.8035 20.4281C15.6261 19.9999 15.5797 19.5286 15.6701 19.074C15.7605 18.6193 15.9838 18.2017 16.3115 17.8739C16.6393 17.5462 17.0569 17.3229 17.5116 17.2325C17.9662 17.1421 18.4375 17.1885 18.8657 17.3659C19.294 17.5433 19.66 17.8437 19.9176 18.2291C20.1751 18.6145 20.3126 19.0677 20.3126 19.5312C20.3126 20.1528 20.0656 20.749 19.6261 21.1885C19.1866 21.628 18.5904 21.875 17.9688 21.875Z" fill="#676767"/>
</svg>
